/* XPM */
static char *Rock_1[] = {
/* columns rows colors chars-per-pixel */
"64 64 3 1 ",
"  c #424C6E",
". c #657392",
"X c #7684A5",
/* pixels */
"    ............XXXXXXXXXXXXXXXXXXXXXXXX....XXXX................",
"    ............XXXXXXXXXXXXXXXXXXXXXXXX....XXXX................",
"    ............XXXXXXXXXXXXXXXXXXXXXXXX....XXXX................",
"    ............XXXXXXXXXXXXXXXXXXXXXXXX....XXXX................",
"    ............................................................",
"    ............................................................",
"    ............................................................",
"    ............................................................",
"    XXXX........................................................",
"    XXXX........................................................",
"    XXXX........................................................",
"    XXXX........................................................",
"    XXXX........................................................",
"    XXXX........................................................",
"    XXXX........................................................",
"    XXXX........................................................",
"    XXXX....................................................XXXX",
"    XXXX....................................................XXXX",
"    XXXX....................................................XXXX",
"    XXXX....................................................XXXX",
"    XXXX....................................................XXXX",
"    XXXX....................................................XXXX",
"    XXXX....................................................XXXX",
"    XXXX....................................................XXXX",
"    XXXX........................................................",
"    XXXX........................................................",
"    XXXX........................................................",
"    XXXX........................................................",
"    ............................................................",
"    ............................................................",
"    ............................................................",
"    ............................................................",
"    ........................................................XXXX",
"    ........................................................XXXX",
"    ........................................................XXXX",
"    ........................................................XXXX",
"    XXXX....................................................XXXX",
"    XXXX....................................................XXXX",
"    XXXX....................................................XXXX",
"    XXXX....................................................XXXX",
"    ........................................................XXXX",
"    ........................................................XXXX",
"    ........................................................XXXX",
"    ........................................................XXXX",
"    ........................................................XXXX",
"    ........................................................XXXX",
"    ........................................................XXXX",
"    ........................................................XXXX",
"    ............................................................",
"    ............................................................",
"    ............................................................",
"    ............................................................",
"    ............................................................",
"    ............................................................",
"    ............................................................",
"    ............................................................",
"    ........................XXXXXXXXXXXXXXXXXXXXXXXX............",
"    ........................XXXXXXXXXXXXXXXXXXXXXXXX............",
"    ........................XXXXXXXXXXXXXXXXXXXXXXXX............",
"    ........................XXXXXXXXXXXXXXXXXXXXXXXX............",
"                                                                ",
"                                                                ",
"                                                                ",
"                                                                "
};
