/* XPM */
static char *Rock_3[] = {
/* columns rows colors chars-per-pixel */
"64 64 2 1 ",
"  c #566082",
". c #657392",
/* pixels */
"................................................................",
"................................................................",
"................................................................",
"................................................................",
"....                ....                        ....        ....",
"....                ....                        ....        ....",
"....                ....                        ....        ....",
"....                ....                        ....        ....",
"....    ................................................    ....",
"....    ................................................    ....",
"....    ................................................    ....",
"....    ................................................    ....",
"................................                    ....    ....",
"................................                    ....    ....",
"................................                    ....    ....",
"................................                    ....    ....",
"....    ........................................    ....    ....",
"....    ........................................    ....    ....",
"....    ........................................    ....    ....",
"....    ........................................    ....    ....",
"....    ............                        ............    ....",
"....    ............                        ............    ....",
"....    ............                        ............    ....",
"....    ............                        ............    ....",
"............    ....    ................    ............    ....",
"............    ....    ................    ............    ....",
"............    ....    ................    ............    ....",
"............    ....    ................    ............    ....",
"....    ....    ....    ........................................",
"....    ....    ....    ........................................",
"....    ....    ....    ........................................",
"....    ....    ....    ........................................",
"............    ....    ................................    ....",
"............    ....    ................................    ....",
"............    ....    ................................    ....",
"............    ....    ................................    ....",
"....    ....    ....    ........................    ....    ....",
"....    ....    ....    ........................    ....    ....",
"....    ....    ....    ........................    ....    ....",
"....    ....    ....    ........................    ....    ....",
"....    ....................            ........    ....    ....",
"....    ....................            ........    ....    ....",
"....    ....................            ........    ....    ....",
"....    ....................            ........    ....    ....",
"....    ........................................    ....    ....",
"....    ........................................    ....    ....",
"....    ........................................    ....    ....",
"....    ........................................    ....    ....",
"....    ........    ....                            ............",
"....    ........    ....                            ............",
"....    ........    ....                            ............",
"....    ........    ....                            ............",
"....    ................................................    ....",
"....    ................................................    ....",
"....    ................................................    ....",
"....    ................................................    ....",
"....        ....                    ........                ....",
"....        ....                    ........                ....",
"....        ....                    ........                ....",
"....        ....                    ........                ....",
"................................................................",
"................................................................",
"................................................................",
"................................................................"
};
