/* XPM */
static char *Rock_8[] = {
/* columns rows colors chars-per-pixel */
"64 64 3 1 ",
"  c #566082",
". c #657392",
"X c #6B7896",
/* pixels */
"................................................................",
"................................................................",
"................................................................",
"................................................................",
"................................................................",
"................................................................",
"................................................................",
"................................................................",
"........XXXX........XXXX........................................",
"........XXXX........XXXX........................................",
"........XXXX........XXXX........................................",
"........XXXX........XXXX........................................",
"........    XXXXXXXX    ........................................",
"........    XXXXXXXX    ........................................",
"........    XXXXXXXX    ........................................",
"........    XXXXXXXX    ........................................",
"............            ........................................",
"............            ........................................",
"............            ........................................",
"............            ........................................",
"....................    XXXX....................................",
"....................    XXXX....................................",
"....................    XXXX....................................",
"....................    XXXX....................................",
"........................    ....................XXXX............",
"........................    ....................XXXX............",
"........................    ....................XXXX............",
"........................    ....................XXXX............",
"........................    XXXX................    XXXX........",
"........................    XXXX................    XXXX........",
"........................    XXXX................    XXXX........",
"........................    XXXX................    XXXX........",
"............................    ................        ........",
"............................    ................        ........",
"............................    ................        ........",
"............................    ................        ........",
"................................................    ............",
"................................................    ............",
"................................................    ............",
"................................................    ............",
"............................................XXXX    ............",
"............................................XXXX    ............",
"............................................XXXX    ............",
"............................................XXXX    ............",
"....................................XXXXXXXX    ................",
"....................................XXXXXXXX    ................",
"....................................XXXXXXXX    ................",
"....................................XXXXXXXX    ................",
"............................XXXXXXXX        ....................",
"............................XXXXXXXX        ....................",
"............................XXXXXXXX        ....................",
"............................XXXXXXXX        ....................",
"............................        ............................",
"............................        ............................",
"............................        ............................",
"............................        ............................",
"................................................................",
"................................................................",
"................................................................",
"................................................................",
"................................................................",
"................................................................",
"................................................................",
"................................................................"
};
