/* XPM */
static char *Rock_2[] = {
/* columns rows colors chars-per-pixel */
"64 64 4 1 ",
"  c #303656",
". c #404A6B",
"X c #424C6E",
"o c #495377",
/* pixels */
"    ............oooooooooooooooooooooooo....oooo................",
"    ............oooooooooooooooooooooooo....oooo................",
"    ............oooooooooooooooooooooooo....oooo................",
"    ............oooooooooooooooooooooooo....oooo................",
"    ............................................................",
"    ............................................................",
"    ............................................................",
"    ............................................................",
"    oooo........................................................",
"    oooo........................................................",
"    oooo........................................................",
"    oooo........................................................",
"    oooo........................................................",
"    oooo........................................................",
"    oooo........................................................",
"    oooo........................................................",
"    oooo....................................................oooo",
"    oooo....................................................oooo",
"    oooo....................................................oooo",
"    oooo....................................................oooo",
"    oooo....................................................oooo",
"    oooo....................................................oooo",
"    oooo....................................................oooo",
"    oooo....................................................oooo",
"    oooo........................................................",
"    oooo........................................................",
"    oooo........................................................",
"    oooo........................................................",
"    ............................................................",
"    ............................................................",
"    ............................................................",
"    ............................................................",
"    ........................................................oooo",
"    ........................................................oooo",
"    ........................................................oooo",
"    ........................................................oooo",
"    oooo....................................................oooo",
"    oooo....................................................oooo",
"    oooo....................................................oooo",
"    oooo....................................................oooo",
"    ........................................................oooo",
"    ........................................................oooo",
"    ........................................................oooo",
"    ........................................................oooo",
"    ........................................................oooo",
"    ........................................................oooo",
"    ........................................................oooo",
"    ........................................................oooo",
"    ............................................................",
"    ............................................................",
"    ............................................................",
"    ............................................................",
"    ............................................................",
"    ............................................................",
"    ............................................................",
"    ............................................................",
"    ........................oooooooooooooooooooooooo............",
"    ........................oooooooooooooooooooooooo............",
"    ........................oooooooooooooooooooooooo............",
"    ........................oooooooooooooooooooooooo............",
"                                                                ",
"                                                                ",
"                                                                ",
"                                                                "
};
