/* XPM */
static char *Death_01[] = {
/* columns rows colors chars-per-pixel */
"36 74 26 1 ",
"  c None",
". c black",
"X c #230726",
"o c #3B122F",
"O c #310D35",
"+ c #222028",
"@ c #343336",
"# c #511C3A",
"$ c #1C1859",
"% c #571748",
"& c #6E2749",
"* c #2A6957",
"= c gray35",
"- c #676767",
"; c gray45",
": c #913C51",
"> c #8C4B63",
", c #95426A",
"< c #C16A7D",
"1 c #3B804D",
"2 c #5078A1",
"3 c gray56",
"4 c #9C8C9C",
"5 c #AEAEAE",
"6 c #E5959F",
"7 c #F2E9F2",
/* pixels */
"       .........                    ",
"       .........                    ",
"     ..&&:::::&&....                ",
"     ..&&:::::&&....                ",
"     ..&&:::::&&....                ",
"  ...&&&&&&&&&...............       ",
"  ...&&&&&&&&&...............       ",
".....::&&111..OO%%%%%%%%%%%%%..     ",
".....::&&111..OO%%%%%%%%%%%%%..     ",
"..&&&&&**...OO%%&&&&%%%%&&&%%%%...  ",
"..&&&&&**...OO%%&&&&%%%%&&&%%%%...  ",
"..&&&&&**...OO%%&&&&%%%%&&&%%%%...  ",
"  ...OO**...%%&&&&&&OOOO%%%&&OO...  ",
"  ...OO**...%%&&&&&&OOOO%%%&&OO...  ",
"  ...%%..%%%%%&&OOOO%%&&&&&::::%%%..",
"  ...%%..%%%%%&&OOOO%%&&&&&::::%%%..",
"  ...OO..%%%&&%%%%%%%%::&&&%%&&&&&..",
"  ...OO..%%%&&%%%%%%%%::&&&%%&&&&&..",
"  ...OO..%%%&&%%%%%%%%::&&&%%&&&&&..",
"  ...OO..%%%&&%%%%%%%%::&&&%%&&&&&..",
"  .......%%%OOOO&&&&%%&&>>>%%OO%%%..",
"  .......%%%OOOO&&&&%%&&>>>%%OO%%%..",
"       ..OOOOOOO::::OO%%<<<<<$$...  ",
"       ..OOOOOOO::::OO%%<<<<<$$...  ",
"       ..OOO66::OOOO44$$<<<6622...  ",
"       ..OOO66::OOOO44$$<<<6622...  ",
"       ..OOO66::OOOO44$$<<<6622...  ",
"         ...<<<<%%%%772266666<<...  ",
"         ...<<<<%%%%772266666<<...  ",
"       ..,,,....&&&&6666666<<..     ",
"       ..,,,....&&&&6666666<<..     ",
"     ..&&,,,,,......*******XX--...  ",
"     ..&&,,,,,......*******XX--...  ",
"     ..&&,,,,,......*******XX--...  ",
"     ..&&###..33XXXXoo111116666---..",
"     ..&&###..33XXXXoo111116666---..",
"     ..&&...333366666611111<<<<333..",
"     ..&&...333366666611111<<<<333..",
"     ..&&...33--<<<<<<11111oo.....  ",
"     ..&&...33--<<<<<<11111oo.....  ",
"       .....5555****XX11111**..     ",
"       .....5555****XX11111**..     ",
"       .....5555****XX11111**..     ",
"       ..&&&..XXXXXX1111***++..     ",
"       ..&&&..XXXXXX1111***++..     ",
"         .....******11@@+++++..     ",
"         .....******11@@+++++..     ",
"            ..++@@@@@@..+++66..     ",
"            ..++@@@@@@..+++66..     ",
"            ..++@@@@@@..+++66..     ",
"            ..++@@@@..++@@@..       ",
"            ..++@@@@..++@@@..       ",
"            ..<<6666..++@@@..       ",
"            ..<<6666..++@@@..       ",
"         ...++@@......;;55555..     ",
"         ...++@@......;;55555..     ",
"         ...++@@......;;55555..     ",
"         ...++@@......;;55555..     ",
"         ...==;;....                ",
"         ...==;;....                ",
"         ...5555....                ",
"         ...5555....                ",
"                                    ",
"                                    ",
"                                    ",
"                                    ",
"                                    ",
"                                    ",
"                                    ",
"                                    ",
"                                    ",
"                                    ",
"                                    ",
"                                    "
};
