/* XPM */
static char *Death_05[] = {
/* columns rows colors chars-per-pixel */
"36 74 20 1 ",
"  c None",
". c black",
"X c #230726",
"o c #310D35",
"O c #222028",
"+ c #343336",
"@ c #43153B",
"# c #511C3A",
"$ c #571748",
"% c #6E2749",
"& c #66334B",
"* c #2A6957",
"= c gray45",
"- c #913C51",
"; c #8C4B63",
": c #C16A7D",
"> c #3B804D",
", c gray56",
"< c #AEAEAE",
"1 c #E5959F",
/* pixels */
"                                    ",
"                                    ",
"                                    ",
"                                    ",
"                                    ",
"                                    ",
"                                    ",
"                                    ",
"                                    ",
"                                    ",
"                                    ",
"                                    ",
"       ..........                   ",
"       ..........                   ",
"    ...%%------%%..                 ",
"    ...%%------%%..                 ",
"  ..%%%%%%%%%%%..............       ",
"  ..%%%%%%%%%%%..............       ",
"  ..%%%%%%%%%%%..............       ",
"  ..%%%%%%%%%%%..............       ",
"....---%%>>....oo$$$$$$$$$$$$..     ",
"....---%%>>....oo$$$$$$$$$$$$..     ",
"..%%%%%**..oooo$$%%$$$$$%%$$$$$..   ",
"..%%%%%**..oooo$$%%$$$$$%%$$$$$..   ",
"  ..ooo**..$$$$%%%%ooooo$$%%%oo..   ",
"  ..ooo**..$$$$%%%%ooooo$$%%%oo..   ",
"  ..ooo**..$$$$%%%%ooooo$$%%%oo..   ",
"  ..ooo..$$$$$$%%oo$$$%%%%-----$$...",
"  ..ooo..$$$$$$%%oo$$$%%%%-----$$...",
"  .......$$%%%%$$$$$$$--%%$$$%%%%...",
"  .......$$%%%%$$$$$$$--%%$$$%%%%...",
"       ..$$oooooo%%$$$%%;;$$$oo..   ",
"       ..$$oooooo%%$$$%%;;$$$oo..   ",
"       ..$$oooooo%%$$$%%;;$$$oo..   ",
"       ..oooooooo--ooo$$:::::::..   ",
"       ..oooooooo--ooo$$:::::::..   ",
"       ..oo1111--oo:::::::111&&..   ",
"       ..oo1111--oo:::::::111&&..   ",
"    ...%%..::::::$$&&&&&11111::..   ",
"    ...%%..::::::$$&&&&&11111::..   ",
"    ...%%##......%%1111111:::..     ",
"    ...%%##......%%1111111:::..     ",
"    ...%%##......%%1111111:::..     ",
"    ...%%##%%%%....XXX****XXX....   ",
"    ...%%##%%%%....XXX****XXX....   ",
"    ...%%##....,,,,@@@>>>>@@@<<11...",
"    ...%%##....,,,,@@@>>>>@@@<<11...",
"       ..##....,,<<@@@>>>>@@@..::...",
"       ..##....,,<<@@@>>>>@@@..::...",
"       ..##....,,<<@@@>>>>@@@..::...",
"       ..%%....,,<<***>>>>***OO..   ",
"       ..%%....,,<<***>>>>***OO..   ",
"         ......::11>>>OO..OOO11..   ",
"         ......::11>>>OO..OOO11..   ",
"           ........OOO++..+++++..   ",
"           ........OOO++..+++++..   ",
"           ........OOO++..+++++..   ",
"           ........OOO++..+++++..   ",
"         ..<<<<==OO:::11..          ",
"         ..<<<<==OO:::11..          ",
"                                    ",
"                                    ",
"                                    ",
"                                    ",
"                                    ",
"                                    ",
"                                    ",
"                                    ",
"                                    ",
"                                    ",
"                                    ",
"                                    ",
"                                    ",
"                                    "
};
