/* XPM */
static char *Death_02[] = {
/* columns rows colors chars-per-pixel */
"36 74 24 1 ",
"  c None",
". c black",
"X c #230726",
"o c #310D35",
"O c #222028",
"+ c #343336",
"@ c #43153B",
"# c #511C3A",
"$ c #571748",
"% c #6E2749",
"& c #66334B",
"* c #2A6957",
"= c gray35",
"- c gray45",
"; c #913C51",
": c #8C4B63",
"> c #95426A",
", c #C16A7D",
"< c #3B804D",
"1 c #5078A1",
"2 c gray56",
"3 c #AEAEAE",
"4 c #E5959F",
"5 c #F2E9F2",
/* pixels */
"                                    ",
"                                    ",
"                                    ",
"                                    ",
"                                    ",
"                                    ",
"                                    ",
"       ..........                   ",
"       ..........                   ",
"    ...%%;;;;;;%%...                ",
"    ...%%;;;;;;%%...                ",
"    ...%%;;;;;;%%...                ",
"  ..%%%%%%%%%%%..............       ",
"  ..%%%%%%%%%%%..............       ",
"....;;;%%<<....oo$$$$$$$$$$$$..     ",
"....;;;%%<<....oo$$$$$$$$$$$$..     ",
"..%%%%%**..oooo$$%%%$$$$%%$$$$$..   ",
"..%%%%%**..oooo$$%%%$$$$%%$$$$$..   ",
"..%%%%%**..oooo$$%%%$$$$%%$$$$$..   ",
"..%%%%%**..oooo$$%%%$$$$%%$$$$$..   ",
"  ..ooo**..$$$$%%%%%oooo$$%%%oo..   ",
"  ..ooo**..$$$$%%%%%oooo$$%%%oo..   ",
"  ..ooo..$$$$$$%%ooo$$%%%%;;;;;$$...",
"  ..ooo..$$$$$$%%ooo$$%%%%;;;;;$$...",
"  .......$$%%%%$$$$$$$;;%%$$$%%%%...",
"  .......$$%%%%$$$$$$$;;%%$$$%%%%...",
"  .......$$%%%%$$$$$$$;;%%$$$%%%%...",
"       ..$$oooooo%%%$$%%::$$$oo$$...",
"       ..$$oooooo%%%$$%%::$$$oo$$...",
"       ..oooooooo;;;oo$$,,,,,&&..   ",
"       ..oooooooo;;;oo$$,,,,,&&..   ",
"       ..oo4444;;ooo&&&&,,44411..   ",
"       ..oo4444;;ooo&&&&,,44411..   ",
"       ..oo4444;;ooo&&&&,,44411..   ",
"       ....,,,,,,$$$551144444,,..   ",
"       ....,,,,,,$$$551144444,,..   ",
"    ...%%>>......%%%444444,,,..     ",
"    ...%%>>......%%%444444,,,..     ",
"    ...%%##.........XX****XXX..     ",
"    ...%%##.........XX****XXX..     ",
"    ...%%..222222***@@<<<<@@@44..   ",
"    ...%%..222222***@@<<<<@@@44..   ",
"    ...%%..222222***@@<<<<@@@44..   ",
"    .....22222233***@@<<<<@@@,,..   ",
"    .....22222233***@@<<<<@@@,,..   ",
"       ..223333..@@@**<<<<***..     ",
"       ..223333..@@@**<<<<***..     ",
"       ..,,4444..***<<<<<<+++44..   ",
"       ..,,4444..***<<<<<<+++44..   ",
"       ..,,4444..***<<<<<<+++44..   ",
"         ......OOOOOOOOOOOOOO++..   ",
"         ......OOOOOOOOOOOOOO++..   ",
"           ....OO,,,44..--.....     ",
"           ....OO,,,44..--.....     ",
"         ..OOOO+++++....33333..     ",
"         ..OOOO+++++....33333..     ",
"         ..OOOO+++++....33333..     ",
"         ..OOOO+++++....33333..     ",
"         ..====--...                ",
"         ..====--...                ",
"         ..====33333..              ",
"         ..====33333..              ",
"                                    ",
"                                    ",
"                                    ",
"                                    ",
"                                    ",
"                                    ",
"                                    ",
"                                    ",
"                                    ",
"                                    ",
"                                    ",
"                                    "
};
