/* XPM */
static char *Death_06[] = {
/* columns rows colors chars-per-pixel */
"37 74 20 1 ",
"  c None",
". c black",
"X c #230726",
"o c #310D35",
"O c #222028",
"+ c #343336",
"@ c #43153B",
"# c #571748",
"$ c #6E2749",
"% c #66334B",
"& c #2A6957",
"* c gray45",
"= c #913C51",
"- c #8C4B63",
"; c #95426A",
": c #C16A7D",
"> c #3B804D",
", c gray56",
"< c #AEAEAE",
"1 c #E5959F",
/* pixels */
"                                     ",
"                                     ",
"                                     ",
"                                     ",
"                                     ",
"                                     ",
"                                     ",
"                                     ",
"                                     ",
"                                     ",
"                                     ",
"                                     ",
"                                     ",
"                                     ",
"        .........                    ",
"        .........                    ",
"      ..$$$====$$...                 ",
"      ..$$$====$$...                 ",
"      ..$$$====$$...                 ",
"      ..$$$====$$...                 ",
"    ..$$$$$$$$$..............        ",
"    ..$$$$$$$$$..............        ",
"    ..==$$$>>..oo############..      ",
"    ..==$$$>>..oo############..      ",
" ...$$$$&&&..oo##$$$####$$$####....  ",
" ...$$$$&&&..oo##$$$####$$$####....  ",
" ...$$$$&&&..oo##$$$####$$$####....  ",
"......oo&&&..##$$$$$oooo###$$oo....  ",
"......oo&&&..##$$$$$oooo###$$oo....  ",
"....##oo...####$$ooo##$$$$$====####..",
"....##oo...####$$ooo##$$$$$====####..",
"....oo.....##$$#######==$$$##$$$$$$..",
"....oo.....##$$#######==$$$##$$$$$$..",
"....oo.....##$$#######==$$$##$$$$$$..",
" ..........##oooo$$$##$$---##oo......",
" ..........##oooo$$$##$$---##oo......",
"        ...oooooo===oo##:::::::....  ",
"        ...oooooo===oo##:::::::....  ",
"        ...oo11==ooo:::::::11%%....  ",
"        ...oo11==ooo:::::::11%%....  ",
"      ..;;;..::::###%%%%11111::....  ",
"      ..;;;..::::###%%%%11111::....  ",
"      ..;;;..::::###%%%%11111::....  ",
"    ..$$;;;......$$$1111111::..      ",
"    ..$$;;;......$$$1111111::..      ",
"    ..$$...,,,,XX&&&&&XX.....        ",
"    ..$$...,,,,XX&&&&&XX.....        ",
"    ....,,,,,<<@@>>>>>@@...          ",
"    ....,,,,,<<@@>>>>>@@...          ",
"    ....,,,,,<<@@>>>>>@@...          ",
"    ..::,,,<<&&@@>>>>>@@...          ",
"    ..::,,,<<&&@@>>>>>@@...          ",
"    ..::111..XX&&>>>>>OO...          ",
"    ..::111..XX&&>>>>>OO...          ",
"    .........OOOO...OO++...          ",
"    .........OOOO...OO++...          ",
"    .........OOOO...OO++...          ",
"    .........OOOO...OO++...          ",
" ...<<**OOOOO++++...++11             ",
" ...<<**OOOOO++++...++11             ",
"        OOO::11..                    ",
"        OOO::11..                    ",
"                                     ",
"                                     ",
"                                     ",
"                                     ",
"                                     ",
"                                     ",
"                                     ",
"                                     ",
"                                     ",
"                                     ",
"                                     ",
"                                     "
};
