/* XPM */
static char *Portal_Open_5[] = {
/* columns rows colors chars-per-pixel */
"64 64 14 1 ",
"  c None",
". c #3012B4",
"X c #3C10CB",
"o c #511BCB",
"O c #460EDE",
"+ c #6B22DE",
"@ c #4C0CE8",
"# c #500CF0",
"$ c #550BF9",
"% c #580AFF",
"& c #6C15FF",
"* c #8529F0",
"= c #8624FF",
"- c #9A2FFF",
/* pixels */
"                 ---                        %%%                 ",
"                 ---                        %%%                 ",
"                                                                ",
"                                                                ",
"                                                                ",
"                                                                ",
"                                                                ",
"                                                                ",
"                                                                ",
"                                                                ",
"                                                                ",
"                                                                ",
"                         @@%%%XX..@@@@@                         ",
"                         @@%%%XX..@@@@@                         ",
"                         @@%%%XX..@@@@@                         ",
"                      XXX%%@@@@@.....OO...                      ",
"                      XXX%%@@@@@.....OO...                      ",
"                    @@...**...##  ........@@               %%%  ",
"                    @@...**...##  ........@@               %%%  ",
"                    @@...**...##  ........@@               %%%  ",
"     %%          @@@%%XXXooOOO....   .....%%%%%          %%     ",
"     %%          @@@%%XXXooOOO....   .....%%%%%          %%     ",
"            %%%@@ooo.......   ..     .....XX&&&                 ",
"            %%%@@ooo.......   ..     .....XX&&&                 ",
"            %%%@@ooo.......   ..     .....XX&&&                 ",
"               ..XXX.....       %%        ..&&&                 ",
"               ..XXX.....       %%        ..&&&                 ",
"               @@.....          --        ..&&&@@               ",
"               @@.....          --        ..&&&@@               ",
"               @@.....          --        ..&&&@@               ",
"               XXXXX..                    ..***@@               ",
"               XXXXX..                    ..***@@               ",
"               .......                    **&&&@@               ",
"               .......                    **&&&@@               ",
"               XX.....                 ...XX...@@               ",
"               XX.....                 ...XX...@@               ",
"               XX.....                 ...XX...@@               ",
"               .......   --          --...XX%%%..               ",
"               .......   --          --...XX%%%..               ",
"            %%%..OOO.....            --+++%%###                 ",
"            %%%..OOO.....            --+++%%###                 ",
"            %%%..OOO.....            --+++%%###                 ",
"     --          ...@@.....            ........          --     ",
"     --          ...@@.....            ........          --     ",
"                 $$$.....OO...       ..%%%@@...                 ",
"                 $$$.....OO...       ..%%%@@...                 ",
"                 $$$.....OO...       ..%%%@@...                 ",
"               %%     @@@OOXXX..##...##...                      ",
"               %%     @@@OOXXX..##...##...                      ",
"                      %%%%%===....@@@%%@@@                      ",
"                      %%%%%===....@@@%%@@@                      ",
"                      %%%%%===....@@@%%@@@                      ",
"                           @@@@@.....  %%%                      ",
"                           @@@@@.....  %%%                      ",
"                                                                ",
"                                                                ",
"                                                                ",
"                    %%                                          ",
"                    %%                                          ",
"                                                           %%%  ",
"                                                           %%%  ",
"                                                           %%%  ",
"                                                              %%",
"                                                              %%"
};
