/* XPM */
static char *Grass_05[] = {
/* columns rows colors chars-per-pixel */
"64 64 2 1 ",
"  c #63C74D",
". c #87CF5E",
/* pixels */
"                                                                ",
"                                                                ",
"                                                                ",
"                                                                ",
"                                                                ",
"                                                                ",
"                                                                ",
"                                                                ",
"                                                                ",
"                                                                ",
"                                                                ",
"                                                                ",
"                                    ........                    ",
"                                    ........                    ",
"                                    ........                    ",
"                                    ........                    ",
"                                ................                ",
"                                ................                ",
"                                ................                ",
"                                ................                ",
"                                ................                ",
"                                ................                ",
"                                ................                ",
"                                ................                ",
"                                    ........                    ",
"                                    ........                    ",
"                                    ........                    ",
"                                    ........                    ",
"                                                                ",
"                                                                ",
"                                                                ",
"                                                                ",
"                                                                ",
"                                                                ",
"                                                                ",
"                                                                ",
"                                                                ",
"                                                                ",
"                                                                ",
"                                                                ",
"                                                                ",
"                                                                ",
"                                                                ",
"                                                                ",
"                                                                ",
"                                                                ",
"                                                                ",
"                                                                ",
"                                                                ",
"                                                                ",
"                                                                ",
"                                                                ",
"                                                                ",
"                                                                ",
"                                                                ",
"                                                                ",
"                                                                ",
"                                                                ",
"                                                                ",
"                                                                ",
"                                                                ",
"                                                                ",
"                                                                ",
"                                                                "
};
