/* XPM */
static char *Grass_06[] = {
/* columns rows colors chars-per-pixel */
"64 64 2 1 ",
"  c #51AC69",
". c #63C74D",
/* pixels */
"................................................................",
"................................................................",
"................................................................",
"................................................................",
"................................................................",
"................................................................",
"................................................................",
"................................................................",
"........................................        ................",
"........................................        ................",
"........................................        ................",
"........................................        ................",
"....................................                ............",
"....................................                ............",
"....................................                ............",
"....................................                ............",
"....................................                ............",
"....................................                ............",
"....................................                ............",
"....................................                ............",
"........................................        ................",
"........................................        ................",
"........................................        ................",
"........................................        ................",
"................................................................",
"................................................................",
"................................................................",
"................................................................",
"................................................................",
"................................................................",
"................................................................",
"................................................................",
"................            ....................................",
"................            ....................................",
"................            ....................................",
"................            ....................................",
"............                    ................................",
"............                    ................................",
"............                    ................................",
"............                    ................................",
"............                    ................        ........",
"............                    ................        ........",
"............                    ................        ........",
"............                    ................        ........",
"............                    ................        ........",
"............                    ................        ........",
"............                    ................        ........",
"............                    ................        ........",
"................            ....................................",
"................            ....................................",
"................            ....................................",
"................            ....................................",
"................................................................",
"................................................................",
"................................................................",
"................................................................",
"................................................................",
"................................................................",
"................................................................",
"................................................................",
"................................................................",
"................................................................",
"................................................................",
"................................................................"
};
