/* XPM */
static char *Grass_10[] = {
/* columns rows colors chars-per-pixel */
"64 64 2 1 ",
"  c #63C74D",
". c #7BCF5C",
/* pixels */
"                                                                ",
"                                                                ",
"                                                                ",
"                                                                ",
"                                                                ",
"                                                                ",
"                                                                ",
"                                                                ",
"                                                                ",
"                                                                ",
"                                                                ",
"                                                                ",
"                                                                ",
"                                                                ",
"                                                                ",
"                                                                ",
"                                                                ",
"                                                                ",
"                                                                ",
"                                                                ",
"                                                                ",
"                                                                ",
"                                                                ",
"                                                                ",
"                                                                ",
"                                                                ",
"                                                                ",
"                                                                ",
"                                                                ",
"                                                                ",
"                                                                ",
"                                                                ",
"                                                                ",
"                                                                ",
"                                                                ",
"                                                                ",
"                                                                ",
"                                                                ",
"                                                                ",
"                                                                ",
"                                                                ",
"                                                                ",
"                                                                ",
"                                                                ",
"                                                ........        ",
"                                                ........        ",
"                                                ........        ",
"                                                ........        ",
"                                            ................    ",
"                                            ................    ",
"                                            ................    ",
"                                            ................    ",
"                                            ................    ",
"                                            ................    ",
"                                            ................    ",
"                                            ................    ",
"                                                ........        ",
"                                                ........        ",
"                                                ........        ",
"                                                ........        ",
"                                                                ",
"                                                                ",
"                                                                ",
"                                                                "
};
