/* XPM */
static char *Grass_09[] = {
/* columns rows colors chars-per-pixel */
"64 64 2 1 ",
"  c #5FC14C",
". c #63C74D",
/* pixels */
"........        ................................        ........",
"........        ................................        ........",
"........        ................................        ........",
"........        ................................        ........",
"....                ........................                ....",
"....                ........................                ....",
"....                ........................                ....",
"....                ........................                ....",
"                        ................                        ",
"                        ................                        ",
"                        ................                        ",
"                        ................                        ",
"                        ................                        ",
"                        ................                        ",
"                        ................                        ",
"                        ................                        ",
"....                ........................                ....",
"....                ........................                ....",
"....                ........................                ....",
"....                ........................                ....",
"........        ............        ............        ........",
"........        ............        ............        ........",
"........        ............        ............        ........",
"........        ............        ............        ........",
"........................                ........................",
"........................                ........................",
"........................                ........................",
"........................                ........................",
"....................                        ....................",
"....................                        ....................",
"....................                        ....................",
"....................                        ....................",
"....................                        ....................",
"....................                        ....................",
"....................                        ....................",
"....................                        ....................",
"........................                ........................",
"........................                ........................",
"........................                ........................",
"........................                ........................",
"........        ............        ............        ........",
"........        ............        ............        ........",
"........        ............        ............        ........",
"........        ............        ............        ........",
"....                ........................                ....",
"....                ........................                ....",
"....                ........................                ....",
"....                ........................                ....",
"                        ................                        ",
"                        ................                        ",
"                        ................                        ",
"                        ................                        ",
"                        ................                        ",
"                        ................                        ",
"                        ................                        ",
"                        ................                        ",
"....                ........................                ....",
"....                ........................                ....",
"....                ........................                ....",
"....                ........................                ....",
"........        ................................        ........",
"........        ................................        ........",
"........        ................................        ........",
"........        ................................        ........"
};
