/* XPM */
static char *idle_6[] = {
/* columns rows colors chars-per-pixel */
"33 64 23 1 ",
"  c None",
". c black",
"X c #230726",
"o c #310D35",
"O c #222028",
"+ c #343336",
"@ c #43153B",
"# c #1C1859",
"$ c #571748",
"% c #6E2749",
"& c #2A6957",
"* c #676767",
"= c gray45",
"- c #913C51",
"; c #8C4B63",
": c #C16A7D",
"> c #3B804D",
", c #5078A1",
"< c gray56",
"1 c #9C8C9C",
"2 c #AEAEAE",
"3 c #E5959F",
"4 c #F2E9F2",
/* pixels */
"                                 ",
"                                 ",
"                                 ",
"           ...........           ",
"           ...........           ",
"           ...........           ",
"        ...%%------%%%...        ",
"        ...%%------%%%...        ",
"        .................        ",
"        .................        ",
"        .................        ",
"     ...ooo%%ooo%%%ooo%%%..      ",
"     ...ooo%%ooo%%%ooo%%%..      ",
"     ...ooo%%ooo%%%ooo%%%..      ",
"  ...ooo%%%$$ooo%%%$$$%%%--...   ",
"  ...ooo%%%$$ooo%%%$$$%%%--...   ",
"  ...ooo%%%$$ooo%%%$$$%%%--...   ",
"  ...$$$ooo$$$$$oooooo$$$%%...   ",
"  ...$$$ooo$$$$$oooooo$$$%%...   ",
"  ...ooo$$$-----$$$---ooo$$...   ",
"  ...ooo$$$-----$$$---ooo$$...   ",
"  ...ooo$$$-----$$$---ooo$$...   ",
".....$$$$$$$$$$$$$$%%%$$$--...   ",
".....$$$$$$$$$$$$$$%%%$$$--...   ",
".....$$$$$$$$$$$$$$%%%$$$--...   ",
"..%%%%%%$$$ooooo;;;%%%ooo%%......",
"..%%%%%%$$$ooooo;;;%%%ooo%%......",
"..%%%%%%$$$ooooo;;;%%%ooo%%......",
"  ...oooooo##::::::###111$$%%%...",
"  ...oooooo##::::::###111$$%%%...",
"  ...oooooo##::::::###111$$%%%...",
"  ...%%%444,,333333,,,444oo...   ",
"  ...%%%444,,333333,,,444oo...   ",
"  ...%%%:::33333333333:::%%...   ",
"  ...%%%:::33333333333:::%%...   ",
"  ...%%%:::33333333333:::%%...   ",
"     ......XX&&&&&&&&&.....      ",
"     ......XX&&&&&&&&&.....      ",
"     ......XX&&&&&&&&&.....      ",
"  ...<<<&&&@@>>>>>>>>>@@@<<...   ",
"  ...<<<&&&@@>>>>>>>>>@@@<<...   ",
"  ...<<<&&&@@>>>>>>>>>@@@<<...   ",
"..<<<<<<33333>>>>>>>>>33333<<<...",
"..<<<<<<33333>>>>>>>>>33333<<<...",
"..<<<<<<33333>>>>>>>>>33333<<<...",
"..******:::::>>>>>>>>>:::::***...",
"..******:::::>>>>>>>>>:::::***...",
"  ......OOOOO+++++++++OOO.....   ",
"  ......OOOOO+++++++++OOO.....   ",
"  ......OOOOO+++++++++OOO.....   ",
"     ...OOO++......OOO+++..      ",
"     ...OOO++......OOO+++..      ",
"     ...OOO++......OOO+++..      ",
"  ...:::333..   ...OOO333..      ",
"  ...:::333..   ...OOO333..      ",
"  ...:::333..   ...OOO333..      ",
"  ...OOO+++.....OOO+++...        ",
"  ...OOO+++.....OOO+++...        ",
"..======...  ...OOO+++...        ",
"..======...  ...OOO+++...        ",
"..======...  ...OOO+++...        ",
"..222222...  ...======222..      ",
"..222222...  ...======222..      ",
"..222222...  ...======222..      "
};
