/* XPM */
static char *idle_7[] = {
/* columns rows colors chars-per-pixel */
"33 64 23 1 ",
"  c None",
". c black",
"X c #230726",
"o c #310D35",
"O c #222028",
"+ c #343336",
"@ c #43153B",
"# c #1C1859",
"$ c #571748",
"% c #6E2749",
"& c #2A6957",
"* c #676767",
"= c gray45",
"- c #913C51",
"; c #8C4B63",
": c #C16A7D",
"> c #3B804D",
", c #5078A1",
"< c gray56",
"1 c #9C8C9C",
"2 c #AEAEAE",
"3 c #E5959F",
"4 c #F2E9F2",
/* pixels */
"                                 ",
"                                 ",
"                                 ",
"           ...........           ",
"           ...........           ",
"           ...........           ",
"        .................        ",
"        .................        ",
"      ..ooo%%%ooo%%%oo%%%...     ",
"      ..ooo%%%ooo%%%oo%%%...     ",
"      ..ooo%%%ooo%%%oo%%%...     ",
"   ...oo%%%$$$ooo%%%$$%%%---...  ",
"   ...oo%%%$$$ooo%%%$$%%%---...  ",
"   ...oo%%%$$$ooo%%%$$%%%---...  ",
"   ...$$ooo$$$$$$ooooo$$$%%%...  ",
"   ...$$ooo$$$$$$ooooo$$$%%%...  ",
"   ...$$ooo$$$$$$ooooo$$$%%%...  ",
"   ...oo$$$------$$$--ooo$$$...  ",
"   ...oo$$$------$$$--ooo$$$...  ",
"   ...$$$$$$$$$$$$$$%%$$$---...  ",
"   ...$$$$$$$$$$$$$$%%$$$---...  ",
"   ...$$$$$$$$$$$$$$%%$$$---...  ",
"......%%$$$oooooo;;;%%ooo%%%.....",
"......%%$$$oooooo;;;%%ooo%%%.....",
"......%%$$$oooooo;;;%%ooo%%%.....",
"...%%%ooooo###::::::##111$$$%%%..",
"...%%%ooooo###::::::##111$$$%%%..",
"...%%%ooooo###::::::##111$$$%%%..",
"   ...%%444,,,333333,,444ooo...  ",
"   ...%%444,,,333333,,444ooo...  ",
"   ...%%444,,,333333,,444ooo...  ",
"   ...%%:::33333333333:::%%%...  ",
"   ...%%:::33333333333:::%%%...  ",
"      .....XXX&&&&&&&&......     ",
"      .....XXX&&&&&&&&......     ",
"      .....XXX&&&&&&&&......     ",
"   ...<<&&&@@@>>>>>>>>@@@<<<...  ",
"   ...<<&&&@@@>>>>>>>>@@@<<<...  ",
"   ...<<&&&@@@>>>>>>>>@@@<<<...  ",
"...<<<<<&&&@@@>>>>>>>>@@@<<<<<<..",
"...<<<<<&&&@@@>>>>>>>>@@@<<<<<<..",
"...<<<<<&&&@@@>>>>>>>>@@@<<<<<<..",
"...*****333333>>>>>>>>333333***..",
"...*****333333>>>>>>>>333333***..",
"...*****333333>>>>>>>>333333***..",
"   .....::::::>>>>>>>>::::::...  ",
"   .....::::::>>>>>>>>::::::...  ",
"      ..OOOOOO++++++++OOO...     ",
"      ..OOOOOO++++++++OOO...     ",
"      ..OOOOOO++++++++OOO...     ",
"      ..OOO+++......OO+++...     ",
"      ..OOO+++......OO+++...     ",
"      ..OOO+++......OO+++...     ",
"   ...::333...   ...OO333...     ",
"   ...::333...   ...OO333...     ",
"   ...::333...   ...OO333...     ",
"   ...OO+++......OOO++...        ",
"   ...OO+++......OOO++...        ",
"...=====...   ...OOO++...        ",
"...=====...   ...OOO++...        ",
"...=====...   ...OOO++...        ",
"...22222...   ...=====222...     ",
"...22222...   ...=====222...     ",
"...22222...   ...=====222...     "
};
