/* XPM */
static char *slime_5[] = {
/* columns rows colors chars-per-pixel */
"64 64 6 1 ",
"  c None",
". c #3F275E",
"X c #1E5451",
"o c #8D4179",
"O c #A65CAD",
"+ c #C17CD2",
/* pixels */
"                                                                ",
"                                                                ",
"                                                                ",
"                                                                ",
"                                                                ",
"                                                                ",
"                                                                ",
"                                                                ",
"                                                                ",
"                                                                ",
"                                                                ",
"                                                                ",
"                                                                ",
"                                                                ",
"                                                                ",
"                                                                ",
"                                                                ",
"                                                                ",
"                                                                ",
"                                                                ",
"                                                                ",
"                                                                ",
"                                                                ",
"                                                                ",
"                           XXXXXXXXXXX                          ",
"                           XXXXXXXXXXX                          ",
"                           XXXXXXXXXXX                          ",
"                      XXXXXOOO++++++++XXXXX                     ",
"                      XXXXXOOO++++++++XXXXX                     ",
"                   XXXOOOOOOOOOOOOOOOO+++++XXX                  ",
"                   XXXOOOOOOOOOOOOOOOO+++++XXX                  ",
"                   XXXOOOOOOOOOOOOOOOO+++++XXX                  ",
"                XXXOOOOOOOOOOOOOOOOOOOOOOOO+++XX                ",
"                XXXOOOOOOOOOOOOOOOOOOOOOOOO+++XX                ",
"                XXXOOOOOOOOOOOOOOOOOOOOOOOO+++XX                ",
"                XXXOOOOO++++++OOOOO+++OOOOO+++XX                ",
"                XXXOOOOO++++++OOOOO+++OOOOO+++XX                ",
"              XXOOOOOOOO++++++OOOOO+++OOOOOOOO++XXX             ",
"              XXOOOOOOOO++++++OOOOO+++OOOOOOOO++XXX             ",
"              XXOOOOOOOO++++++OOOOO+++OOOOOOOO++XXX             ",
"              XXOOOOOOOO+++OOO..OOOOOO..OOOOOO++XXX             ",
"              XXOOOOOOOO+++OOO..OOOOOO..OOOOOO++XXX             ",
"              XXOOOOOOOO+++OOO..OOOOOO..OOOOOO++XXX             ",
"             XXXOOOoooOOOOOOOO..OOOOOO..OOOOOO++XXX             ",
"             XXXOOOoooOOOOOOOO..OOOOOO..OOOOOO++XXX             ",
"             XXXOOOoooOOOOOOOO..OOOOOO..OOOOOOOOXXX             ",
"             XXXOOOoooOOOOOOOO..OOOOOO..OOOOOOOOXXX             ",
"             XXXOOOoooOOOOOOOO..OOOOOO..OOOOOOOOXXX             ",
"             XXXOOOoooOOOOOOOOOOOOOOOOOOOOOOOOOOXXX             ",
"             XXXOOOoooOOOOOOOOOOOOOOOOOOOOOOOOOOXXX             ",
"             XXXOOOoooOOOOOOOOOOOOOOOOOOOOOOOOOOXXX             ",
"             XXXOOOoooooOOOOOOOOOOOOOOOOOOOOOOOOXXX             ",
"             XXXOOOoooooOOOOOOOOOOOOOOOOOOOOOOOOXXX             ",
"             X  XXXOOOooooooooOOOOOOOOOOOOOOOOXX                ",
"             X  XXXOOOooooooooOOOOOOOOOOOOOOOOXX                ",
"             X  XXXOOOooooooooOOOOOOOOOOOOOOOOXX                ",
"             X  XXXOOOOOOOOOOOOOOOOOOOOOOOOOOOXX                ",
"             X  XXXOOOOOOOOOOOOOOOOOOOOOOOOOOOXX                ",
"             X  XXXOOOOOOOOOOOOOOOOOOOOOOOOOOOXX                ",
"                   XXXOOOOOOOOOOOOOOOOOOOOOXXX                  ",
"                   XXXOOOOOOOOOOOOOOOOOOOOOXXX                  ",
"                      XXXXXXXXXXXXXXXXXXXXX                     ",
"                      XXXXXXXXXXXXXXXXXXXXX                     ",
"                      XXXXXXXXXXXXXXXXXXXXX                     "
};
