/* XPM */
static char *slime_1[] = {
/* columns rows colors chars-per-pixel */
"64 64 6 1 ",
"  c None",
". c #3F275E",
"X c #1E5451",
"o c #8D4179",
"O c #A65CAD",
"+ c #C17CD2",
/* pixels */
"                                                                ",
"                                                                ",
"                                                                ",
"                                                                ",
"                                                                ",
"                                                                ",
"                                                                ",
"                                                                ",
"                                                                ",
"                                                                ",
"                                                                ",
"                                                                ",
"                                                                ",
"                                                                ",
"                                                                ",
"                                                                ",
"                                                                ",
"                                                                ",
"                                                                ",
"                                                                ",
"                                                                ",
"                                                                ",
"                                                                ",
"                                                                ",
"                                                                ",
"                                                                ",
"                                                                ",
"                                                                ",
"                                                                ",
"                        XXXXXXXXXXXXXXXX                        ",
"                        XXXXXXXXXXXXXXXX                        ",
"                        XXXXXXXXXXXXXXXX                        ",
"                   XXXXX++++++++++++++++XXXXXX                  ",
"                   XXXXX++++++++++++++++XXXXXX                  ",
"                   XXXXX++++++++++++++++XXXXXX                  ",
"                XXXOOOOOOOOOOOOOOOOOOOOO++++++XX                ",
"                XXXOOOOOOOOOOOOOOOOOOOOO++++++XX                ",
"              XXOOOOOOOO++++++OOOOO+++OOOOOOOO++XXX             ",
"              XXOOOOOOOO++++++OOOOO+++OOOOOOOO++XXX             ",
"              XXOOOOOOOO++++++OOOOO+++OOOOOOOO++XXX             ",
"              XXOOOOOOOO++++++OOOOOOOOOOOOOOOO++XXX             ",
"              XXOOOOOOOO++++++OOOOOOOOOOOOOOOO++XXX             ",
"              XXOOOOOOOO++++++OOOOOOOOOOOOOOOO++XXX             ",
"           XXXOOOOOOOOOOOOOOOOOOOOOOOOOOOOOOOOOO+++XX           ",
"           XXXOOOOOOOOOOOOOOOOOOOOOOOOOOOOOOOOOO+++XX           ",
"           XXXOOoooOOOOOOOO...OOOOOOOOOO...OOOOO+++XX           ",
"           XXXOOoooOOOOOOOO...OOOOOOOOOO...OOOOO+++XX           ",
"           XXXOOoooOOOOOOOO...OOOOOOOOOO...OOOOO+++XX           ",
"           XXXOOoooOOOOOOOO...OOOOOOOOOO...OOOOO+++XX           ",
"           XXXOOoooOOOOOOOO...OOOOOOOOOO...OOOOO+++XX           ",
"           XXXOOoooOOOOOOOO...OOOOOOOOOO...OOOOO+++XX           ",
"           XXXOOoooOOOOOOOO...OOOOOOOOOO...OOOOO+++XX           ",
"           XXXOOoooOOOOOOOO...OOOOOOOOOO...OOOOO+++XX           ",
"           XXXOOooooooOOOOOOOOOOOOOOOOOOOOOOOOOO+++XX           ",
"           XXXOOooooooOOOOOOOOOOOOOOOOOOOOOOOOOO+++XX           ",
"           XXXOOooooooOOOOOOOOOOOOOOOOOOOOOOOOOO+++XX           ",
"           XXXOOOOOooooooooOOOOOOOOOOOOOOOOOOOOOOOOXX           ",
"           XXXOOOOOooooooooOOOOOOOOOOOOOOOOOOOOOOOOXX           ",
"           XXXOOOOOooooooooOOOOOOOOOOOOOOOOOOOOOOOOXX           ",
"              XXOOOOOOOOOOOOOOOOOOOOOOOOOOOOOOOOXXX             ",
"              XXOOOOOOOOOOOOOOOOOOOOOOOOOOOOOOOOXXX             ",
"                XXXXXXXXXXXXXXXXXXXXXXXXXXXXXXXX                ",
"                XXXXXXXXXXXXXXXXXXXXXXXXXXXXXXXX                ",
"                XXXXXXXXXXXXXXXXXXXXXXXXXXXXXXXX                "
};
