/* XPM */
static char *Death_03[] = {
/* columns rows colors chars-per-pixel */
"35 74 21 1 ",
"  c None",
". c black",
"X c #230726",
"o c #310D35",
"O c #222028",
"+ c #343336",
"@ c #43153B",
"# c #511C3A",
"$ c #571748",
"% c #6E2749",
"& c #66334B",
"* c #2A6957",
"= c gray45",
"- c #913C51",
"; c #8C4B63",
": c #95426A",
"> c #C16A7D",
", c #3B804D",
"< c gray56",
"1 c #AEAEAE",
"2 c #E5959F",
/* pixels */
"                                   ",
"                                   ",
"                                   ",
"                                   ",
"                                   ",
"                                   ",
"                                   ",
"                                   ",
"                                   ",
"       ..........                  ",
"       ..........                  ",
"       ..........                  ",
"    ...%%------%%..                ",
"    ...%%------%%..                ",
"  ..%%%%%%%%%%%.............       ",
"  ..%%%%%%%%%%%.............       ",
"  ..---%%,,,...oo$$$$$$$$$$$...    ",
"  ..---%%,,,...oo$$$$$$$$$$$...    ",
"  ..---%%,,,...oo$$$$$$$$$$$...    ",
"  ..---%%,,,...oo$$$$$$$$$$$...    ",
"  ..%%%**...ooo$$%%$$$$$%%$$$$$..  ",
"  ..%%%**...ooo$$%%$$$$$%%$$$$$..  ",
"..%%ooo**...$$$%%%%ooooo$$%%ooo..  ",
"..%%ooo**...$$$%%%%ooooo$$%%ooo..  ",
"....$$$..$$$$$$%%oo$$$%%%%-----$$..",
"....$$$..$$$$$$%%oo$$$%%%%-----$$..",
"....$$$..$$$$$$%%oo$$$%%%%-----$$..",
"  ..$$$..$$$%%%$$$$$$$--%%$$%%%%%..",
"  ..$$$..$$$%%%$$$$$$$--%%$$%%%%%..",
"  ..ooo..$$$ooooo%%$$$%%;;$$ooo$$..",
"  ..ooo..$$$ooooo%%$$$%%;;$$ooo$$..",
"  .......oooooooo--ooo$$>>>>>>>..  ",
"  .......oooooooo--ooo$$>>>>>>>..  ",
"  .......oooooooo--ooo$$>>>>>>>..  ",
"       ..ooo222--oo>>>>>>>22&&&..  ",
"       ..ooo222--oo>>>>>>>22&&&..  ",
"       .....>>>>>$$&&&&&2222>>>..  ",
"       .....>>>>>$$&&&&&2222>>>..  ",
"    ...%%:::.....%%2222222>>...    ",
"    ...%%:::.....%%2222222>>...    ",
"    ...%%###%%%....XXX****XX...    ",
"    ...%%###%%%....XXX****XX...    ",
"    ...%%###%%%....XXX****XX...    ",
"    ...%%###...<<<<@@@,,,,@@222..  ",
"    ...%%###...<<<<@@@,,,,@@222..  ",
"    ...%%###...<<11@@@,,,,@@.....  ",
"    ...%%###...<<11@@@,,,,@@.....  ",
"       ..###%%%..<<222,,,,**+++..  ",
"       ..###%%%..<<222,,,,**+++..  ",
"       ..###%%%..<<222,,,,**+++..  ",
"       ..%%%%%%..>>222OOOOOO222..  ",
"       ..%%%%%%..>>222OOOOOO222..  ",
"         ........OOOOO++..++...    ",
"         ........OOOOO++..++...    ",
"            ...==OO>>>22..         ",
"            ...==OO>>>22..         ",
"            ...==OO>>>22..         ",
"            ...==OO>>>22..         ",
"         ...111==OO+++             ",
"         ...111==OO+++             ",
"                                   ",
"                                   ",
"                                   ",
"                                   ",
"                                   ",
"                                   ",
"                                   ",
"                                   ",
"                                   ",
"                                   ",
"                                   ",
"                                   ",
"                                   ",
"                                   "
};
