/* XPM */
static char *Death_04[] = {
/* columns rows colors chars-per-pixel */
"35 74 20 1 ",
"  c None",
". c black",
"X c #230726",
"o c #310D35",
"O c #222028",
"+ c #343336",
"@ c #511C3A",
"# c #571748",
"$ c #6E2749",
"% c #66334B",
"& c #2A6957",
"* c gray45",
"= c #913C51",
"- c #8C4B63",
"; c #95426A",
": c #C16A7D",
"> c #3B804D",
", c gray56",
"< c #AEAEAE",
"1 c #E5959F",
/* pixels */
"                                   ",
"                                   ",
"                                   ",
"                                   ",
"                                   ",
"                                   ",
"                                   ",
"                                   ",
"                                   ",
"                                   ",
"                                   ",
"                                   ",
"         .........                 ",
"         .........                 ",
"     ....$$====$$$..               ",
"     ....$$====$$$..               ",
"   ..$$$$$$$$$$..............      ",
"   ..$$$$$$$$$$..............      ",
"   ..$$$$$$$$$$..............      ",
"   ..$$$$$$$$$$..............      ",
"   ..====$$>>..ooo###########...   ",
"   ..====$$>>..ooo###########...   ",
"...$$$$$$&&..oo###$$#####$$#####.. ",
"...$$$$$$&&..oo###$$#####$$#####.. ",
".....oooo&&..##$$$$$ooooo##$$ooo.. ",
".....oooo&&..##$$$$$ooooo##$$ooo.. ",
".....oooo&&..##$$$$$ooooo##$$ooo.. ",
"   ..####..####$$$oo##$$$$$=====##.",
"   ..####..####$$$oo##$$$$$=====##.",
"   ..oooo..##$$#######===$$##$$$$$.",
"   ..oooo..##$$#######===$$##$$$$$.",
"   ........##ooooo$$##$$$--##ooo##.",
"   ........##ooooo$$##$$$--##ooo##.",
"   ........##ooooo$$##$$$--##ooo##.",
"         ..ooooooo==oo###:::::::.. ",
"         ..ooooooo==oo###:::::::.. ",
"         ..oo11===oo:::::::11%%%.. ",
"         ..oo11===oo:::::::11%%%.. ",
"         ....:::::##%%%%%1111:::.. ",
"         ....:::::##%%%%%1111:::.. ",
"     ....$$;;.....$$1111111::...   ",
"     ....$$;;.....$$1111111::...   ",
"     ....$$;;.....$$1111111::...   ",
"     ....$$@@..,,,..XX&&&&&XX111.. ",
"     ....$$@@..,,,..XX&&&&&XX111.. ",
"     ....$$..,,,,,,,XX&&&&&XX:::.. ",
"     ....$$..,,,,,,,XX&&&&&XX:::.. ",
"     ....$$..,,<<<&&XX&&&&&XX...   ",
"     ....$$..,,<<<&&XX&&&&&XX...   ",
"     ....$$..,,<<<&&XX&&&&&XX...   ",
"         ....,,<<<XX&&&&&&&OO...   ",
"         ....,,<<<XX&&&&&&&OO...   ",
"         ....::111&&OO...::11...   ",
"         ....::111&&OO...::11...   ",
"           .......OO++...++++...   ",
"           .......OO++...++++...   ",
"           .......OO++...++++...   ",
"           .......OO++...++++...   ",
"         ..<<**OOO++11...          ",
"         ..<<**OOO++11...          ",
"                                   ",
"                                   ",
"                                   ",
"                                   ",
"                                   ",
"                                   ",
"                                   ",
"                                   ",
"                                   ",
"                                   ",
"                                   ",
"                                   ",
"                                   ",
"                                   "
};
