/* XPM */
static char *Death_08[] = {
/* columns rows colors chars-per-pixel */
"46 74 18 1 ",
"  c None",
". c black",
"X c #120317",
"o c #230726",
"O c #310D35",
"+ c #222028",
"@ c #343336",
"# c #511C3A",
"$ c #571748",
"% c #6E2749",
"& c #2A6957",
"* c gray45",
"= c #913C51",
"- c #95426A",
"; c #C16A7D",
": c gray56",
"> c #AEAEAE",
", c #E5959F",
/* pixels */
"                                              ",
"                                              ",
"                                              ",
"                                              ",
"                                              ",
"                                              ",
"                                              ",
"                                              ",
"                                              ",
"                                              ",
"                                              ",
"                                              ",
"                                              ",
"                                              ",
"                                              ",
"                                              ",
"                                              ",
"                                              ",
"                                              ",
"                                              ",
"                                              ",
"                                              ",
"                                              ",
"                                              ",
"                                              ",
"                                              ",
"                                              ",
"                                              ",
"                                              ",
"                                              ",
"                                              ",
"                                              ",
"                                              ",
"                                              ",
"                                              ",
"                                              ",
"                                              ",
"                                              ",
"                                              ",
"                                              ",
"                                              ",
"                                              ",
"                                              ",
"                        ........              ",
"                        ........              ",
"                 .......%%====%%..            ",
"                 .......%%====%%..            ",
"            .....XXXXX$$$$%%%%%%%%.....       ",
"            .....XXXXX$$$$%%%%%%%%.....       ",
"            .....XXXXX$$$$%%%%%%%%.....       ",
"      ......---XXOOOOO$$%%%%%%%%==XXX$$..     ",
"      ......---XXOOOOO$$%%%%%%%%==XXX$$..     ",
"   ...**..--%%%XXXX$$$$$$$$$$$%%==XXX$$OO...  ",
"   ...**..--%%%XXXX$$$$$$$$$$$%%==XXX$$OO...  ",
" .........--%%%XXOOOOOOOOO%%%%%%XX$$$$$$$OOO..",
" .........--%%%XXOOOOOOOOO%%%%%%XX$$$$$$$OOO..",
" .........--%%%XXOOOOOOOOO%%%%%%XX$$$$$$$OOO..",
" .........--%%%XXOOOOOOOOO%%%%%%XX$$$$$$$OOO..",
".>>***++..%%###XXXXOOOOO%%XXXXXX$$$$$$$$$OOO..",
".>>***++..%%###XXXXOOOOO%%XXXXXX$$$$$$$$$OOO..",
"   ***@@++..oooooXXXXXXXXXXXXXOO$$$$$OO%%$$$..",
"   ***@@++..oooooXXXXXXXXXXXXXOO$$$$$OO%%$$$..",
"        ;;++ooooo..OOOOOOO$$$$$$OOOOO%%%%$$$..",
"        ;;++ooooo..OOOOOOO$$$$$$OOOOO%%%%$$$..",
"        ;;++ooooo..OOOOOOO$$$$$$OOOOO%%%%$$$..",
"            &&&oo.....OOOOOOOO$$$$$$$%%OO===..",
"            &&&oo.....OOOOOOOO$$$$$$$%%OO===..",
"            .....::.....OOOOOO$$$$$$$$$OO...  ",
"            .....::.....OOOOOO$$$$$$$$$OO...  ",
"          ..,,,>>::...$$,,;;;;$$$$$$$OO%%     ",
"          ..,,,>>::...$$,,;;;;$$$$$$$OO%%     ",
"          ..,,,>>::...$$,,;;;;$$$$$$$OO%%     ",
"          ..;;;::..     ======%%$$%%%==       ",
"          ..;;;::..     ======%%$$%%%==       "
};
