/* XPM */
static char *Heart_2[] = {
/* columns rows colors chars-per-pixel */
"64 64 5 1 ",
"  c None",
". c black",
"X c #9B1A0A",
"o c #EF3A0C",
"O c white",
/* pixels */
"                                                                ",
"                                                                ",
"                                                                ",
"                                                                ",
"                                                                ",
"                                                                ",
"                                                                ",
"                                                                ",
"         ................                ................       ",
"         ................                ................       ",
"         ................                ................       ",
"         ................                ................       ",
"     ....oooooooooooooooo....        ....                ....   ",
"     ....oooooooooooooooo....        ....                ....   ",
"     ....oooooooooooooooo....        ....                ....   ",
"     ....oooooooooooooooo....        ....                ....   ",
".....XXXXooooooooOOOOoooooooo........                        ...",
".....XXXXooooooooOOOOoooooooo........                        ...",
".....XXXXooooooooOOOOoooooooo........                        ...",
".....XXXXooooooooOOOOoooooooo........                        ...",
".....XXXXooooOOOOoooooooooooooooo                            ...",
".....XXXXooooOOOOoooooooooooooooo                            ...",
".....XXXXooooOOOOoooooooooooooooo                            ...",
".....XXXXooooOOOOoooooooooooooooo                            ...",
".....XXXXoooooooooooooooooooooooo                            ...",
".....XXXXoooooooooooooooooooooooo                            ...",
".....XXXXoooooooooooooooooooooooo                            ...",
".....XXXXoooooooooooooooooooooooo                            ...",
".....XXXXoooooooooooooooooooooooo                            ...",
".....XXXXoooooooooooooooooooooooo                            ...",
".....XXXXoooooooooooooooooooooooo                            ...",
".....XXXXoooooooooooooooooooooooo                            ...",
"     ....XXXXoooooooooooooooooooo                        ....   ",
"     ....XXXXoooooooooooooooooooo                        ....   ",
"     ....XXXXoooooooooooooooooooo                        ....   ",
"     ....XXXXoooooooooooooooooooo                        ....   ",
"         ....XXXXoooooooooooooooo                    ....       ",
"         ....XXXXoooooooooooooooo                    ....       ",
"         ....XXXXoooooooooooooooo                    ....       ",
"         ....XXXXoooooooooooooooo                    ....       ",
"             ....XXXXoooooooooooo                ....           ",
"             ....XXXXoooooooooooo                ....           ",
"             ....XXXXoooooooooooo                ....           ",
"             ....XXXXoooooooooooo                ....           ",
"                 ....XXXXoooooooo            ....               ",
"                 ....XXXXoooooooo            ....               ",
"                 ....XXXXoooooooo            ....               ",
"                 ....XXXXoooooooo            ....               ",
"                     ....XXXXoooo        ....                   ",
"                     ....XXXXoooo        ....                   ",
"                     ....XXXXoooo        ....                   ",
"                     ....XXXXoooo        ....                   ",
"                         ....XXXX    ....                       ",
"                         ....XXXX    ....                       ",
"                         ....XXXX    ....                       ",
"                         ....XXXX    ....                       ",
"                             ........                           ",
"                             ........                           ",
"                             ........                           ",
"                             ........                           ",
"                                                                ",
"                                                                ",
"                                                                ",
"                                                                "
};
