/* XPM */
static char *Heart_3[] = {
/* columns rows colors chars-per-pixel */
"65 64 2 1 ",
"  c None",
". c black",
/* pixels */
"                                                                 ",
"                                                                 ",
"                                                                 ",
"                                                                 ",
"                                                                 ",
"                                                                 ",
"                                                                 ",
"                                                                 ",
"         ................                ................        ",
"         ................                ................        ",
"         ................                ................        ",
"         ................                ................        ",
"     ....                ....        ....                ....    ",
"     ....                ....        ....                ....    ",
"     ....                ....        ....                ....    ",
"     ....                ....        ....                ....    ",
".....                        ........                        ....",
".....                        ........                        ....",
".....                        ........                        ....",
".....                        ........                        ....",
".....                                                        ....",
".....                                                        ....",
".....                                                        ....",
".....                                                        ....",
".....                                                        ....",
".....                                                        ....",
".....                                                        ....",
".....                                                        ....",
".....                                                        ....",
".....                                                        ....",
".....                                                        ....",
".....                                                        ....",
"     ....                                                ....    ",
"     ....                                                ....    ",
"     ....                                                ....    ",
"     ....                                                ....    ",
"         ....                                        ....        ",
"         ....                                        ....        ",
"         ....                                        ....        ",
"         ....                                        ....        ",
"             ....                                ....            ",
"             ....                                ....            ",
"             ....                                ....            ",
"             ....                                ....            ",
"                 ....                        ....                ",
"                 ....                        ....                ",
"                 ....                        ....                ",
"                 ....                        ....                ",
"                     ....                ....                    ",
"                     ....                ....                    ",
"                     ....                ....                    ",
"                     ....                ....                    ",
"                         ....        ....                        ",
"                         ....        ....                        ",
"                         ....        ....                        ",
"                         ....        ....                        ",
"                             ........                            ",
"                             ........                            ",
"                             ........                            ",
"                             ........                            ",
"                                                                 ",
"                                                                 ",
"                                                                 ",
"                                                                 "
};
