/* XPM */
static char *Heart_1[] = {
/* columns rows colors chars-per-pixel */
"63 64 5 1 ",
"  c None",
". c black",
"X c #9B1A0A",
"o c #EF3A0C",
"O c white",
/* pixels */
"                                                               ",
"                                                               ",
"                                                               ",
"                                                               ",
"                                                               ",
"                                                               ",
"                                                               ",
"                                                               ",
"        ................                ................       ",
"        ................                ................       ",
"        ................                ................       ",
"        ................                ................       ",
"    ....oooooooooooooooo....        ....oooooooooooooooo....   ",
"    ....oooooooooooooooo....        ....oooooooooooooooo....   ",
"    ....oooooooooooooooo....        ....oooooooooooooooo....   ",
"    ....oooooooooooooooo....        ....oooooooooooooooo....   ",
"....XXXXooooooooOOOOoooooooo........oooooooooooooooooooooooo...",
"....XXXXooooooooOOOOoooooooo........oooooooooooooooooooooooo...",
"....XXXXooooooooOOOOoooooooo........oooooooooooooooooooooooo...",
"....XXXXooooooooOOOOoooooooo........oooooooooooooooooooooooo...",
"....XXXXooooOOOOoooooooooooooooooooooooooooooooooooooooooooo...",
"....XXXXooooOOOOoooooooooooooooooooooooooooooooooooooooooooo...",
"....XXXXooooOOOOoooooooooooooooooooooooooooooooooooooooooooo...",
"....XXXXooooOOOOoooooooooooooooooooooooooooooooooooooooooooo...",
"....XXXXoooooooooooooooooooooooooooooooooooooooooooooooooooo...",
"....XXXXoooooooooooooooooooooooooooooooooooooooooooooooooooo...",
"....XXXXoooooooooooooooooooooooooooooooooooooooooooooooooooo...",
"....XXXXoooooooooooooooooooooooooooooooooooooooooooooooooooo...",
"....XXXXoooooooooooooooooooooooooooooooooooooooooooooooooooo...",
"....XXXXoooooooooooooooooooooooooooooooooooooooooooooooooooo...",
"....XXXXoooooooooooooooooooooooooooooooooooooooooooooooooooo...",
"....XXXXoooooooooooooooooooooooooooooooooooooooooooooooooooo...",
"    ....XXXXoooooooooooooooooooooooooooooooooooooooooooo....   ",
"    ....XXXXoooooooooooooooooooooooooooooooooooooooooooo....   ",
"    ....XXXXoooooooooooooooooooooooooooooooooooooooooooo....   ",
"    ....XXXXoooooooooooooooooooooooooooooooooooooooooooo....   ",
"        ....XXXXoooooooooooooooooooooooooooooooooooo....       ",
"        ....XXXXoooooooooooooooooooooooooooooooooooo....       ",
"        ....XXXXoooooooooooooooooooooooooooooooooooo....       ",
"        ....XXXXoooooooooooooooooooooooooooooooooooo....       ",
"            ....XXXXoooooooooooooooooooooooooooo....           ",
"            ....XXXXoooooooooooooooooooooooooooo....           ",
"            ....XXXXoooooooooooooooooooooooooooo....           ",
"            ....XXXXoooooooooooooooooooooooooooo....           ",
"                ....XXXXoooooooooooooooooooo....               ",
"                ....XXXXoooooooooooooooooooo....               ",
"                ....XXXXoooooooooooooooooooo....               ",
"                ....XXXXoooooooooooooooooooo....               ",
"                    ....XXXXoooooooooooo....                   ",
"                    ....XXXXoooooooooooo....                   ",
"                    ....XXXXoooooooooooo....                   ",
"                    ....XXXXoooooooooooo....                   ",
"                        ....XXXXoooo....                       ",
"                        ....XXXXoooo....                       ",
"                        ....XXXXoooo....                       ",
"                        ....XXXXoooo....                       ",
"                            ........                           ",
"                            ........                           ",
"                            ........                           ",
"                            ........                           ",
"                                                               ",
"                                                               ",
"                                                               ",
"                                                               "
};
