/* XPM */
static char *Death_07[] = {
/* columns rows colors chars-per-pixel */
"49 74 18 1 ",
"  c None",
". c black",
"X c #120317",
"o c #230726",
"O c #310D35",
"+ c #222028",
"@ c #343336",
"# c #511C3A",
"$ c #571748",
"% c #6E2749",
"& c gray45",
"* c #913C51",
"= c #A27242",
"- c #95426A",
"; c #C16A7D",
": c gray56",
"> c #AEAEAE",
", c #E5959F",
/* pixels */
"                                                 ",
"                                                 ",
"                                                 ",
"                                                 ",
"                                                 ",
"                                                 ",
"                                                 ",
"                                                 ",
"                                                 ",
"                                                 ",
"                                                 ",
"                                                 ",
"                                                 ",
"                                                 ",
"                                                 ",
"                                                 ",
"                                                 ",
"                                                 ",
"                                                 ",
"                                                 ",
"                                                 ",
"                                                 ",
"                                                 ",
"                                                 ",
"                                                 ",
"                                                 ",
"                                                 ",
"                                                 ",
"                                                 ",
"                                                 ",
"                                                 ",
"                                                 ",
"                                                 ",
"                                                 ",
"                                                 ",
"                                                 ",
"                                                 ",
"                                                 ",
"                       .......                   ",
"                       .......                   ",
"                     ..OOO%%........             ",
"                     ..OOO%%........             ",
"                     ..OOO%%........             ",
"                .....OOOOO%%**%%%%..             ",
"                .....OOOOO%%**%%%%..             ",
"              .....$$XXOOOOO$$%%%%....           ",
"              .....$$XXOOOOO$$%%%%....           ",
"            ..--%%%XXOO$$$%%%%$$$$$$XX...        ",
"            ..--%%%XXOO$$$%%%%$$$$$$XX...        ",
"            ..--%%%XXOO$$$%%%%$$$$$$XX...        ",
"       .....--%%===XXOOOOO%%%%$$$$**XX$$$..      ",
"       .....--%%===XXOOOOO%%%%$$$$**XX$$$..      ",
"     ..&&...--%%%%%%%XXOOO$$$$$$$$%%XX$$$OO..    ",
"     ..&&...--%%%%%%%XXOOO$$$$$$$$%%XX$$$OO..    ",
"  ..........%%#####..OOXXXOO$$$$$$XX$$$$$$$OO... ",
"  ..........%%#####..OOXXXOO$$$$$$XX$$$$$$$OO... ",
"  ..........%%#####..OOXXXOO$$$$$$XX$$$$$$$OO... ",
"  ..........%%#####..OOXXXOO$$$$$$XX$$$$$$$OO... ",
"..>>>&&++.....ooooo..OOOOOXXXXXXXX$$$$$$$$$OO....",
"..>>>&&++.....ooooo..OOOOOXXXXXXXX$$$$$$$$$OO....",
"     &&@@+++++.......OOOOOOO$$OOOO$$$$OOO%%$$... ",
"     &&@@+++++.......OOOOOOO$$OOOO$$$$OOO%%$$... ",
"         ;;;..,,:::..OOOOOOO$$$$$$OOOO%%%%%$$... ",
"         ;;;..,,:::..OOOOOOO$$$$$$OOOO%%%%%$$... ",
"         ;;;..,,:::..OOOOOOO$$$$$$OOOO%%%%%$$... ",
"            ..;;:::....OOOOOOO$$$$$$$$%%%OO**... ",
"            ..;;:::....OOOOOOO$$$$$$$$%%%OO**... ",
"              ............,,;;$$$$$$$$$$$OO..    ",
"              ............,,;;$$$$$$$$$$$OO..    ",
"                     ..$$$****$$$$$$$$OOO%%      ",
"                     ..$$$****$$$$$$$$OOO%%      ",
"                     ..$$$****$$$$$$$$OOO%%      ",
"                            OO%%%%$$%%***        ",
"                            OO%%%%$$%%***        "
};
