/* XPM */
static char *Chest_2[] = {
/* columns rows colors chars-per-pixel */
"64 64 10 1 ",
"  c None",
". c #0C0E19",
"X c #21110D",
"o c #342319",
"O c #242A3D",
"+ c #503625",
"@ c #755338",
"# c #414B66",
"$ c #677598",
"% c #B6BEC8",
/* pixels */
"                                                                ",
"                                                                ",
"                                                                ",
"                                                                ",
"                                                                ",
"                                                                ",
"                                                                ",
"                                                                ",
"                                                                ",
"                                                                ",
"                                                                ",
"                                                                ",
"                                                                ",
"                                                                ",
"                                                                ",
"                                                                ",
"                                                                ",
"                                                                ",
"                                                                ",
"                          XXXXXXXXXXXXXXXXXXXXXXXXXXXXXXXXXXX   ",
"                          XXXXXXXXXXXXXXXXXXXXXXXXXXXXXXXXXXX   ",
"                          XXXXXXXXXXXXXXXXXXXXXXXXXXXXXXXXXXX   ",
"                        XX+++++$$$$$+++++++++++++++$$$$$+++++XXX",
"                        XX+++++$$$$$+++++++++++++++$$$$$+++++XXX",
"                        XX@@@@@%%%%%@@@@@@@@@@@@@@@%%%%%@@@@@XXX",
"                        XX@@@@@%%%%%@@@@@@@@@@@@@@@%%%%%@@@@@XXX",
"                        XX@@@@@%%%%%@@@@@@@@@@@@@@@%%%%%@@@@@XXX",
"                        XX@@@@@%%%%%@@@@@@@@@@@@@@@%%%%%@@@@@XXX",
"                        XX@@@@@%%%%%@@@@@@@@@@@@@@@%%%%%@@@@@XXX",
"                        XX+++@@%%%%%@@@@@@@@@@@@@@@%%%%%@@@++XXX",
"                        XX+++@@%%%%%@@@@@@@@@@@@@@@%%%%%@@@++XXX",
"                        XX+++@@%%%%%@@@@@@@@@@@@@@@%%%%%@@@++XXX",
"                        XX+++++$$$$$+++++++++++++++$$$$$+++++XXX",
"                        XX+++++$$$$$+++++++++++++++$$$$$+++++XXX",
"                        XX###$$$$$$$$$$%%%%%%%%%%$$$$$$$$$$##XXX",
"                        XX###$$$$$$$$$$%%%%%%%%%%$$$$$$$$$$##XXX",
"                        XX###$$$$$$$$$$%%%%%%%%%%$$$$$$$$$$##XXX",
"                        ..XXXoo#####ooo##OOOOO###oo#####oooXX...",
"                        ..XXXoo#####ooo##OOOOO###oo#####oooXX...",
"                        ..XXXoo$$$$$+++$$$$$$$$$$++$$$$$oooXX...",
"                        ..XXXoo$$$$$+++$$$$$$$$$$++$$$$$oooXX...",
"                        ..XXXoo$$$$$+++$$$$$$$$$$++$$$$$oooXX...",
"                        ..XXXoo$$$$$+++++++++++++++$$$$$oooXX...",
"                        ..XXXoo$$$$$+++++++++++++++$$$$$oooXX...",
"                        .....XX$$$$$+++++++++++++++$$$$$XXX.....",
"                        .....XX$$$$$+++++++++++++++$$$$$XXX.....",
"                        .....XX$$$$$+++++++++++++++$$$$$XXX.....",
"                          ...................................   ",
"                          ...................................   ",
"                               .........................        ",
"                               .........................        ",
"                               .........................        ",
"                                                                ",
"                                                                ",
"                                                                ",
"                                                                ",
"                                                                ",
"                                                                ",
"                                                                ",
"                                                                ",
"                                                                ",
"                                                                ",
"                                                                ",
"                                                                "
};
