/* XPM */
static char *Chest_3[] = {
/* columns rows colors chars-per-pixel */
"64 64 9 1 ",
"  c None",
". c #0C0E19",
"X c #21110D",
"o c #342319",
"O c #242A3D",
"+ c #503625",
"@ c #755338",
"# c #677598",
"$ c #B6BEC8",
/* pixels */
"                                                                ",
"                                                                ",
"                                                                ",
"                                                                ",
"                                                                ",
"                                                                ",
"                                                                ",
"                                                                ",
"                                                                ",
"                                                                ",
"                                                                ",
"                                                                ",
"                                                                ",
"                                                                ",
"                                                                ",
"                                                                ",
"                                                                ",
"                               XXXXXXXXXXXXXXXXXXXXXXXXX        ",
"                               XXXXXXXXXXXXXXXXXXXXXXXXX        ",
"                             XX$$$$$@@@@@@@@@@@@@@@$$$$$XXX     ",
"                             XX$$$$$@@@@@@@@@@@@@@@$$$$$XXX     ",
"                             XX$$$$$@@@@@@@@@@@@@@@$$$$$XXX     ",
"                          XXX@@XXXXXXXXXXXXXXXXXXXXXXXXX@@@XX   ",
"                          XXX@@XXXXXXXXXXXXXXXXXXXXXXXXX@@@XX   ",
"                          XXX@@XXXXXXXXXXXXXXXXXXXXXXXXX@@@XX   ",
"                          XXX@@XXXXXXXXXXXXXXXXXXXXXXXXX@@@XX   ",
"                          XXX@@XXXXXXXXXXXXXXXXXXXXXXXXX@@@XX   ",
"                          XXX@@XXXXXXXXXXXXXXXXXXXXXXXXX@@@XX   ",
"                          XXX@@XXXXXXXXXXXXXXXXXXXXXXXXX@@@XX   ",
"                          XXX++$$$$$@@@@@@@@@@@@@@@$$$$$+++XX   ",
"                          XXX++$$$$$@@@@@@@@@@@@@@@$$$$$+++XX   ",
"                          XXX++$$$$$@@@@@@@@@@@@@@@$$$$$+++XX   ",
"                          XXXoo#####+++##OOOOO###++#####oooXX   ",
"                          XXXoo#####+++##OOOOO###++#####oooXX   ",
"                          XXXoo#####+++##OOOOO###++#####oooXX   ",
"                          XXXoo#####+++##OOOOO###++#####oooXX   ",
"                          XXXoo#####+++##OOOOO###++#####oooXX   ",
"                        ..XXXoo#####+++##OOOOO###++#####oooXX...",
"                        ..XXXoo#####+++##OOOOO###++#####oooXX...",
"                        ..XXXoo#####+++##########++#####oooXX...",
"                        ..XXXoo#####+++##########++#####oooXX...",
"                        ..XXXoo#####+++##########++#####oooXX...",
"                        ..XXXoo#####+++++++++++++++#####oooXX...",
"                        ..XXXoo#####+++++++++++++++#####oooXX...",
"                        .....XX#####+++++++++++++++#####XXX.....",
"                        .....XX#####+++++++++++++++#####XXX.....",
"                        .....XX#####+++++++++++++++#####XXX.....",
"                          ...................................   ",
"                          ...................................   ",
"                               .........................        ",
"                               .........................        ",
"                               .........................        ",
"                                                                ",
"                                                                ",
"                                                                ",
"                                                                ",
"                                                                ",
"                                                                ",
"                                                                ",
"                                                                ",
"                                                                ",
"                                                                ",
"                                                                ",
"                                                                "
};
