/* XPM */
static char *Dash_3[] = {
/* columns rows colors chars-per-pixel */
"49 64 23 1 ",
"  c None",
". c black",
"X c #230726",
"o c #310D35",
"O c #222028",
"+ c #343336",
"@ c #1C1859",
"# c #571748",
"$ c #6E2749",
"% c #2A6957",
"& c gray35",
"* c gray45",
"= c #913C51",
"- c #8C4B63",
"; c #95426A",
": c #C16A7D",
"> c #3B804D",
", c #5078A1",
"< c gray56",
"1 c #9C8C9C",
"2 c #AEAEAE",
"3 c #E5959F",
"4 c #F2E9F2",
/* pixels */
"                                                 ",
"                                                 ",
"                                                 ",
"                                                 ",
"                                                 ",
"                                                 ",
"                                                 ",
"            .................                    ",
"            .................                    ",
"            .................                    ",
"            ..===$$###=====$$...                 ",
"            ..===$$###=====$$...                 ",
"         ........##$$$#####..............        ",
"         ........##$$$#####..............        ",
"         ........##$$$#####..............        ",
"         ...==...$$###>>...oo############...     ",
"         ...==...$$###>>...oo############...     ",
"       .......===oo%%%..ooo##$$$#####$$#####..   ",
"       .......===oo%%%..ooo##$$$#####$$#####..   ",
"       .......===oo%%%..ooo##$$$#####$$#####..   ",
"       ..###oo###oo%%%..###$$$$$ooooo##$$ooo..   ",
"       ..###oo###oo%%%..###$$$$$ooooo##$$ooo..   ",
"         ...ooooooo...#####$$ooo##$$$$$=====##...",
"         ...ooooooo...#####$$ooo##$$$$$=====##...",
"         ...ooooooo...#####$$ooo##$$$$$=====##...",
"         .............##$$$#######===$$##$$$$$...",
"         .............##$$$#######===$$##$$$$$...",
"       ..$$$;;;;;;;...##ooooo$$$##$$$--##ooo..   ",
"       ..$$$;;;;;;;...##ooooo$$$##$$$--##ooo..   ",
"       ..$$$;;;;;;;...##ooooo$$$##$$$--##ooo..   ",
"       ...............ooooooo===oo###::::@@@..   ",
"       ...............ooooooo===oo###::::@@@..   ",
"     ..3333322222<<<<<oo333==ooo11@@@::33,,,..   ",
"     ..3333322222<<<<<oo333==ooo11@@@::33,,,..   ",
"     ..:::::<<<<<<<<<<..:::::###44,,,3333:::..   ",
"     ..:::::<<<<<<<<<<..:::::###44,,,3333:::..   ",
"     ..:::::<<<<<<<<<<..:::::###44,,,3333:::..   ",
"       .......XXXXXXXX%%.....$$$3333333::...     ",
"       .......XXXXXXXX%%.....$$$3333333::...     ",
"         ...$$...%%%%%%%>>>>>............        ",
"         ...$$...%%%%%%%>>>>>............        ",
"         ...$$...%%%%%%%>>>>>............        ",
"         .....OOOOO+++++OOOOO333..               ",
"         .....OOOOO+++++OOOOO333..               ",
"     ....:::OO+++++.....&&&OO+++..               ",
"     ....:::OO+++++.....&&&OO+++..               ",
"     ....:::OO+++++.....&&&OO+++..               ",
"  ...**OO333++........22222++...                 ",
"  ...**OO333++........22222++...                 ",
"..22222++.....     ..........                    ",
"..22222++.....     ..........                    ",
"..22222++.....     ..........                    ",
".........                                        ",
".........                                        ",
"                                                 ",
"                                                 ",
"                                                 ",
"                                                 ",
"                                                 ",
"                                                 ",
"                                                 ",
"                                                 ",
"                                                 ",
"                                                 "
};
