/* XPM */
static char *Dash_2[] = {
/* columns rows colors chars-per-pixel */
"43 64 25 1 ",
"  c None",
". c black",
"X c #230726",
"o c #3B122F",
"O c #310D35",
"+ c #222028",
"@ c #343336",
"# c #511C3A",
"$ c #1C1859",
"% c #571748",
"& c #6E2749",
"* c #2A6957",
"= c gray35",
"- c gray45",
"; c #913C51",
": c #8C4B63",
"> c #95426A",
", c #C16A7D",
"< c #3B804D",
"1 c #5078A1",
"2 c gray56",
"3 c #9C8C9C",
"4 c #AEAEAE",
"5 c #E5959F",
"6 c #F2E9F2",
/* pixels */
"                                           ",
"                                           ",
"                                           ",
"                                           ",
"                                           ",
"           ............                    ",
"           ............                    ",
"      .....&&%%%;;;;;&&..                  ",
"      .....&&%%%;;;;;&&..                  ",
"      .....&&%%%;;;;;&&..                  ",
"      ..;;;%%&&&%%%%%..............        ",
"      ..;;;%%&&&%%%%%..............        ",
"   ........&&%%%<<...OO%%%%%%%%%%%%...     ",
"   ........&&%%%<<...OO%%%%%%%%%%%%...     ",
"   ........&&%%%<<...OO%%%%%%%%%%%%...     ",
"......;;;;;OO***..OOO%%&&%%%%%&&&%%%%%..   ",
"......;;;;;OO***..OOO%%&&%%%%%&&&%%%%%..   ",
"...%%%OO%%%OO***..%%%&&&&OOOOO%%%&&OOO..   ",
"...%%%OO%%%OO***..%%%&&&&OOOOO%%%&&OOO..   ",
"...%%%OO%%%OO***..%%%&&&&OOOOO%%%&&OOO..   ",
".  ...OOOOOOO...%%%%%&&OO%%%&&&&&;;;;;%%...",
".  ...OOOOOOO...%%%%%&&OO%%%&&&&&;;;;;%%...",
"      ..........%%&&&%%%%%%%;;&&&%%&&&&&...",
"      ..........%%&&&%%%%%%%;;&&&%%&&&&&...",
"      ..........%%&&&%%%%%%%;;&&&%%&&&&&...",
"      .....>>...%%OOOOO&&%%%&&:::%%OOO..   ",
"      .....>>...%%OOOOO&&%%%&&:::%%OOO..   ",
"   ...>>>>>>>...OOOOOOO;;OOO%%,,,,,$$$..   ",
"   ...>>>>>>>...OOOOOOO;;OOO%%,,,,,$$$..   ",
"   ...>>>>>>>...OOOOOOO;;OOO%%,,,,,$$$..   ",
" ..&&&>>>>>>>...OO555;;OO333$$,,,55111..   ",
" ..&&&>>>>>>>...OO555;;OO333$$,,,55111..   ",
" ..&&&##&&&oo.....,,,,,%%6661155555,,,..   ",
" ..&&&##&&&oo.....,,,,,%%6661155555,,,..   ",
"...&&&##&&&..22222.....&&55555555,,...     ",
"...&&&##&&&..22222.....&&55555555,,...     ",
"...&&&##&&&..22222.....&&55555555,,...     ",
"...&&&##...2222244XXX**<<<<<.......        ",
"...&&&##...2222244XXX**<<<<<.......        ",
"   ...##...22444**XXX**<<.....             ",
"   ...##...22444**XXX**<<.....             ",
"   ...##...22444**XXX**<<.....             ",
"   ...&&...2255555***<<+++++55...          ",
"   ...&&...2255555***<<+++++55...          ",
"      .......,,,,,+++++..+++@@...          ",
"      .......,,,,,+++++..+++@@...          ",
"      .......,,,,,+++++..+++@@...          ",
"           ..+++@@.....--@@@..             ",
"           ..+++@@.....--@@@..             ",
"        ...++@@@..   ..44...               ",
"        ...++@@@..   ..44...               ",
"        ...++@@@..   ..44...               ",
"        ...,,555..   ....                  ",
"        ...,,555..   ....                  ",
"      ..+++@@...                           ",
"      ..+++@@...                           ",
"      ..+++@@...                           ",
"      ..===--...                           ",
"      ..===--...                           ",
"      ..44444...                           ",
"      ..44444...                           ",
"      ..44444...                           ",
"                                           ",
"                                           "
};
