/* XPM */
static char *Dash_5[] = {
/* columns rows colors chars-per-pixel */
"49 64 23 1 ",
"  c None",
". c black",
"X c #230726",
"o c #310D35",
"O c #222028",
"+ c #343336",
"@ c #511C3A",
"# c #1C1859",
"$ c #571748",
"% c #6E2749",
"& c #2A6957",
"* c gray35",
"= c gray45",
"- c #913C51",
"; c #8C4B63",
": c #C16A7D",
"> c #3B804D",
", c #5078A1",
"< c gray56",
"1 c #9C8C9C",
"2 c #AEAEAE",
"3 c #E5959F",
"4 c #F2E9F2",
/* pixels */
"                                                 ",
"                                                 ",
"                                                 ",
"                                                 ",
"                                                 ",
"                                                 ",
"                                                 ",
"                                                 ",
"                                                 ",
"                                                 ",
"            .................                    ",
"            .................                    ",
"            ...--%%%$$-----%%...                 ",
"            ...--%%%$$-----%%...                 ",
"            ...--%%%$$-----%%...                 ",
"          .......$$$%%$$$$$...............       ",
"          .......$$$%%$$$$$...............       ",
"          ..---..%%%$$>>>..oo$$$$$$$$$$$$$..     ",
"          ..---..%%%$$>>>..oo$$$$$$$$$$$$$..     ",
"          ..---..%%%$$>>>..oo$$$$$$$$$$$$$..     ",
"       ........--ooo&&...oo$$%%%$$$$$%%$$$$$...  ",
"       ........--ooo&&...oo$$%%%$$$$$%%$$$$$...  ",
"       ...$$ooo$$ooo&&...$$%%%%%ooooo$$%%%oo...  ",
"       ...$$ooo$$ooo&&...$$%%%%%ooooo$$%%%oo...  ",
"       ...$$ooo$$ooo&&...$$%%%%%ooooo$$%%%oo...  ",
"          .....ooooo..$$$$$%%ooo$$%%%%%-----$$$..",
"          .....ooooo..$$$$$%%ooo$$%%%%%-----$$$..",
"       ...33333.......$$$%%$$$$$$$---%%$$$%%%%%..",
"       ...33333.......$$$%%$$$$$$$---%%$$$%%%%%..",
"       ...33333.......$$$%%$$$$$$$---%%$$$%%%%%..",
"       ...:::::22.....$$$oooo%%%$$%%%;;$$$oo...  ",
"       ...:::::22.....$$$oooo%%%$$%%%;;$$$oo...  ",
"       .....<<<<<222..ooooooo---oo$$$:::::##...  ",
"       .....<<<<<222..ooooooo---oo$$$:::::##...  ",
"       ...%%...<<<<<<<ooo33--ooo11###::333,,...  ",
"       ...%%...<<<<<<<ooo33--ooo11###::333,,...  ",
"       ...%%...<<<<<<<ooo33--ooo11###::333,,...  ",
"          ..@@@..<<<<<...::::$$$44,,,33333::...  ",
"          ..@@@..<<<<<...::::$$$44,,,33333::...  ",
"          ..%%%XXXXXXX&&&....%%%3333333:::..     ",
"          ..%%%XXXXXXX&&&....%%%3333333:::..     ",
"          ..%%%XXXXXXX&&&....%%%3333333:::..     ",
"            .....&&&&&&&&>>>>.............       ",
"            .....&&&&&&&&>>>>.............       ",
".................OOO+++++OOOO333..               ",
".................OOO+++++OOOO333..               ",
".................OOO+++++OOOO333..               ",
"..22222OOO::OOO+++++.....**OO+++..               ",
"..22222OOO::OOO+++++.....**OO+++..               ",
"  ...==+++33+++.......22222++...                 ",
"  ...==+++33+++.......22222++...                 ",
"  ...==+++33+++.......22222++...                 ",
"     ..........     .........                    ",
"     ..........     .........                    ",
"                                                 ",
"                                                 ",
"                                                 ",
"                                                 ",
"                                                 ",
"                                                 ",
"                                                 ",
"                                                 ",
"                                                 ",
"                                                 "
};
