/* XPM */
static char *Dash_8[] = {
/* columns rows colors chars-per-pixel */
"39 64 25 1 ",
"  c None",
". c black",
"X c #121115",
"o c #230726",
"O c #310D35",
"+ c #222028",
"@ c #343336",
"# c #511C3A",
"$ c #1C1859",
"% c #571748",
"& c #6E2749",
"* c #2A6957",
"= c gray35",
"- c gray45",
"; c #913C51",
": c #8C4B63",
"> c #95426A",
", c #C16A7D",
"< c #3B804D",
"1 c #5078A1",
"2 c gray56",
"3 c #9C8C9C",
"4 c #AEAEAE",
"5 c #E5959F",
"6 c #F2E9F2",
/* pixels */
"                                       ",
"                                       ",
"                                       ",
"                                       ",
"                                       ",
"                                       ",
"                                       ",
"            .......                    ",
"            .......                    ",
"            .......                    ",
"         ...;;;;;...............       ",
"         ...;;;;;...............       ",
"       ..%%%%%...OO%%%%%%%%%%%%%..     ",
"       ..%%%%%...OO%%%%%%%%%%%%%..     ",
"       ..%%%%%...OO%%%%%%%%%%%%%..     ",
"     ..&&&&&..OOO%%&&&%%%%%&&%%%%%...  ",
"     ..&&&&&..OOO%%&&&%%%%%&&%%%%%...  ",
"     ..%%***..%%%&&&&&OOOOO%%&&&OO...  ",
"     ..%%***..%%%&&&&&OOOOO%%&&&OO...  ",
"     ..%%***..%%%&&&&&OOOOO%%&&&OO...  ",
"  ...;;&&...%%%%%&&OOO%%&&&&&;;;;;%%%..",
"  ...;;&&...%%%%%&&OOO%%&&&&&;;;;;%%%..",
"  ...&&%%...%%&&&%%%%%%%;;;&&%%%&&&&&..",
"  ...&&%%...%%&&&%%%%%%%;;;&&%%%&&&&&..",
"  ...&&%%...%%&&&%%%%%%%;;;&&%%%&&&&&..",
"  .....OO...%%OOOOO&&&%%&&&::%%%OO%%%..",
"  .....OO...%%OOOOO&&&%%&&&::%%%OO%%%..",
"  .....%%...OOOOOOO;;;OO%%%,,,,,$$%%%..",
"  .....%%...OOOOOOO;;;OO%%%,,,,,$$%%%..",
"  .....%%...OOOOOOO;;;OO%%%,,,,,$$%%%..",
"..&&&>>.....OO555;;OOO33$$$,,55511...  ",
"..&&&>>.....OO555;;OOO33$$$,,55511...  ",
"..&&&##&&.....,,,,,%%%6611155555,,...  ",
"..&&&##&&.....,,,,,%%%6611155555,,...  ",
"..&&&##..22222.....&&&5555555,,,..     ",
"..&&&##..22222.....&&&5555555,,,..     ",
"..&&&##..22222.....&&&5555555,,,..     ",
"..&&&..2222244ooo*****..........       ",
"..&&&..2222244ooo*****..........       ",
"  .....22444**ooo<<<<<,,555..          ",
"  .....22444**ooo<<<<<,,555..          ",
"  .....22444**ooo<<<<<,,555..          ",
"  .....2255555***<<<<<.....            ",
"  .....2255555***<<<<<.....            ",
"     ....,,,,,<<<<<<<<..               ",
"     ....,,,,,<<<<<<<<..               ",
"     ....,,,,,<<<<<<<<..               ",
"       ..+++++@@@XX+++..               ",
"       ..+++++@@@XX+++..               ",
"     ....XXX++@@@XX@@@..               ",
"     ....XXX++@@@XX@@@..               ",
"     ....XXX++@@@XX@@@..               ",
"  ...--++,,,@@XXX++555..               ",
"  ...--++,,,@@XXX++555..               ",
"  ...44@@.....+++@@...                 ",
"  ...44@@.....+++@@...                 ",
"  ...44@@.....+++@@...                 ",
"  ...44..   ..===44444..               ",
"  ...44..   ..===44444..               ",
"  .....                                ",
"  .....                                ",
"  .....                                ",
"                                       ",
"                                       "
};
