/* XPM */
static char *Brick[] = {
/* columns rows colors chars-per-pixel */
"64 64 6 1 ",
"  c #181425",
". c #2A2F4E",
"X c #424C6E",
"o c #657392",
"O c #92A1B9",
"+ c #C7CFDD",
/* pixels */
"+++++OOOOOOOOOOOOOOOOOOOOOOOOOOOOOOOOOOOOOOOOOOOOOOOOOOOOOOO++++",
"+++++OOOOOOOOOOOOOOOOOOOOOOOOOOOOOOOOOOOOOOOOOOOOOOOOOOOOOOO++++",
"+++++OOOOOOOOOOOOOOOOOOOOOOOOOOOOOOOOOOOOOOOOOOOOOOOOOOOOOOO++++",
"+++++OOOOOOOOOOOOOOOOOOOOOOOOOOOOOOOOOOOOOOOOOOOOOOOOOOOOOOO++++",
"+++++OOOOOOOOOOOOOOOOOOOOOOOOOOOOOOOOOOOOOOOOOOOOOOOOOOOOOOO++++",
"+++++OOOOOOOOOOOOOOOOOOOOOOOOOOOOOOOOOOOOOOOOOOOOOOOOOOOOOOO++++",
"+++++OOOOOOOOOOOOOOOOOOOOOOOOOOOOOOOOOOOOOOOOOOOOOOOOOOOOOOO++++",
"+++++OOOOOOOOOOOOOOOOOOOOOOOOOOOOOOOOOOOOOOOOOOOOOOOOOOOOOOO++++",
"+++++OOOOOOOOOOOOOOOOOOOOOOOOOOOOOOOOOOOOOOOOOOOOOOOOOOOOOOO++++",
"+++++OOOOOOOOOOOOOOOOOOOOOOOOOOOOOOOOOOOOOOOOOOOOOOOOOOOOOOO++++",
"+++++OOOOOOOOOOOOOOOOOOOOOOOOOOOOOOOOOOOOOOOOOOOOOOOOOOOOOOO++++",
"+++++OOOOOOOOOOOOOOOOOOOOOOOOOOOOOOOOOOOOOOOOOOOOOOOOOOOOOOO++++",
"+++++OOOOOOOOOOOOOOOOOOOOOOOOOOOOOOOOOOOOOOOOOOOOOOOOOOOOOOO++++",
"+++++OOOOOOOOOOOOOOOOOOOOOOOOOOOOOOOOOOOOOOOOOOOOOOOOOOOOOOO++++",
"ooooo+++++++++++++++++++++++++++++++++++++++++++++++++++++++oooo",
"ooooo+++++++++++++++++++++++++++++++++++++++++++++++++++++++oooo",
"ooooo+++++++++++++++++++++++++++++++++++++++++++++++++++++++oooo",
"ooooo+++++++++++++++++++++++++++++++++++++++++++++++++++++++oooo",
"oooooooooooooooooooooooooooooooooooooooooooooooooooooooooooooooo",
"oooooooooooooooooooooooooooooooooooooooooooooooooooooooooooooooo",
"oooooooooooooooooooooooooooooooooooooooooooooooooooooooooooooooo",
"oooooooooooooooooooooooooooooooooooooooooooooooooooooooooooooooo",
"oooooooooooooooooooooooooooooooooooooooooooooooooooooooooooooooo",
"XXXXXoooooooooooooooooooooooooooooooooooooooooooooooooooooooXXXX",
"XXXXXoooooooooooooooooooooooooooooooooooooooooooooooooooooooXXXX",
"XXXXXoooooooooooooooooooooooooooooooooooooooooooooooooooooooXXXX",
"XXXXXoooooooooooooooooooooooooooooooooooooooooooooooooooooooXXXX",
"OOOOOXXXXXXXXXXXXXXXXXXXXXXXXXXXXXXXXXXXXXXXXXXXXXXXXXXXXXXXOOOO",
"OOOOOXXXXXXXXXXXXXXXXXXXXXXXXXXXXXXXXXXXXXXXXXXXXXXXXXXXXXXXOOOO",
"OOOOOXXXXXXXXXXXXXXXXXXXXXXXXXXXXXXXXXXXXXXXXXXXXXXXXXXXXXXXOOOO",
"OOOOOXXXXXXXXXXXXXXXXXXXXXXXXXXXXXXXXXXXXXXXXXXXXXXXXXXXXXXXOOOO",
"OOOOOXXXXXXXXXXXXXXXXXXXXXXXXXXXXXXXXXXXXXXXXXXXXXXXXXXXXXXXOOOO",
"OOOOOOOOOOOOOOOOOOOOOOOoooooOOOOOOOOOOOOOOOOOOOOOOOOOOOOOOOOoooo",
"OOOOOOOOOOOOOOOOOOOOOOOoooooOOOOOOOOOOOOOOOOOOOOOOOOOOOOOOOOoooo",
"OOOOOOOOOOOOOOOOOOOOOOOoooooOOOOOOOOOOOOOOOOOOOOOOOOOOOOOOOOoooo",
"OOOOOOOOOOOOOOOOOOOOOOOoooooOOOOOOOOOOOOOOOOOOOOOOOOOOOOOOOOoooo",
"OOOOOooooooooooooooooooXXXXXOOOOoooooooooooooooooooooooooooooooo",
"OOOOOooooooooooooooooooXXXXXOOOOoooooooooooooooooooooooooooooooo",
"OOOOOooooooooooooooooooXXXXXOOOOoooooooooooooooooooooooooooooooo",
"OOOOOooooooooooooooooooXXXXXOOOOoooooooooooooooooooooooooooooooo",
"OOOOOooooooooooooooooooXXXXXOOOOoooooooooooooooooooooooooooooooo",
".....oooooooooooooooooo.....OOOOoooooooooooooooooooooooooooo....",
".....oooooooooooooooooo.....OOOOoooooooooooooooooooooooooooo....",
".....oooooooooooooooooo.....OOOOoooooooooooooooooooooooooooo....",
".....oooooooooooooooooo.....OOOOoooooooooooooooooooooooooooo....",
".....oooooooooooooooooo.....OOOOoooooooooooooooooooooooooooo....",
"ooooo.......................................................oooo",
"ooooo.......................................................oooo",
"ooooo.......................................................oooo",
"ooooo.......................................................oooo",
"oooooooooooooooooooooooooooooooooooooooooXXXXXooooooooooooooXXXX",
"oooooooooooooooooooooooooooooooooooooooooXXXXXooooooooooooooXXXX",
"oooooooooooooooooooooooooooooooooooooooooXXXXXooooooooooooooXXXX",
"oooooooooooooooooooooooooooooooooooooooooXXXXXooooooooooooooXXXX",
"oooooooooooooooooooooooooooooooooooooooooXXXXXooooooooooooooXXXX",
"oooooXXXXXXXXXXXXXXXXXXXXXXXXXXXXXXXXXXXX.....ooooXXXXXXXXXXXXXX",
"oooooXXXXXXXXXXXXXXXXXXXXXXXXXXXXXXXXXXXX.....ooooXXXXXXXXXXXXXX",
"oooooXXXXXXXXXXXXXXXXXXXXXXXXXXXXXXXXXXXX.....ooooXXXXXXXXXXXXXX",
"oooooXXXXXXXXXXXXXXXXXXXXXXXXXXXXXXXXXXXX.....ooooXXXXXXXXXXXXXX",
"     XXXXXXXXXXXXXXXXXXXXXXXXXXXXXXXXXXXX.....ooooXXXXXXXXXX    ",
"     XXXXXXXXXXXXXXXXXXXXXXXXXXXXXXXXXXXX.....ooooXXXXXXXXXX    ",
"     XXXXXXXXXXXXXXXXXXXXXXXXXXXXXXXXXXXX.....ooooXXXXXXXXXX    ",
"     XXXXXXXXXXXXXXXXXXXXXXXXXXXXXXXXXXXX.....ooooXXXXXXXXXX    ",
"     XXXXXXXXXXXXXXXXXXXXXXXXXXXXXXXXXXXX.....ooooXXXXXXXXXX    "
};
