/* XPM */
static char *death_3[] = {
/* columns rows colors chars-per-pixel */
"64 64 6 1 ",
"  c None",
". c #3F275E",
"X c #1E5451",
"o c #964581",
"O c #AA62B1",
"+ c #C482D4",
/* pixels */
"                                                                ",
"                                                                ",
"                                                                ",
"                                                                ",
"                                                                ",
"                                                                ",
"                                                                ",
"                                                                ",
"                                                                ",
"                                                                ",
"                                                                ",
"                                                                ",
"                                                                ",
"                                                                ",
"                                                                ",
"                                                                ",
"                                                                ",
"                                                                ",
"                                                                ",
"                                                                ",
"                                                                ",
"                                                                ",
"                                                                ",
"                                                                ",
"                                                                ",
"                                                                ",
"                                                                ",
"                                                                ",
"                                                                ",
"                                                                ",
"                                                                ",
"                                                                ",
"                                                                ",
"                                                                ",
"                                                                ",
"                                                                ",
"                                                                ",
"                      XXXXXXXXXXXXXXXXXXXX                      ",
"                      XXXXXXXXXXXXXXXXXXXX                      ",
"                      XXXXXXXXXXXXXXXXXXXX                      ",
"                 XXXXXOOOOOOOOOOOOOOOOO+++XXXXX                 ",
"                 XXXXXOOOOOOOOOOOOOOOOO+++XXXXX                 ",
"              XXXOOOOO++++++OOOOO++++++OOOOOO++XXX              ",
"              XXXOOOOO++++++OOOOO++++++OOOOOO++XXX              ",
"              XXXOOOOO++++++OOOOO++++++OOOOOO++XXX              ",
"           XXXOOOOOOOOOOOOOOOOOOOOOOOOOOOOOOOOO+++XXX           ",
"           XXXOOOOOOOOOOOOOOOOOOOOOOOOOOOOOOOOO+++XXX           ",
"           XXXOOOOOOOOOOOOOOOOOOOOOOOOOOOOOOOOO+++XXX           ",
"        XXXOOOOOOOOOOOOOO...OOOOOOOOOOO...OOOOO+++XXX           ",
"        XXXOOOOOOOOOOOOOO...OOOOOOOOOOO...OOOOO+++XXX           ",
"        XXXOOOoooOOOOOOOO...OOOOOOOOOOO...OOOOOOOO+++XXX        ",
"        XXXOOOoooOOOOOOOO...OOOOOOOOOOO...OOOOOOOO+++XXX        ",
"        XXXOOOoooOOOOOOOO...OOOOOOOOOOO...OOOOOOOO+++XXX        ",
"      XXOOOooooooOOOOOOOO...OOOOOOOOOOO...OOOOOOOOOOO+++XX      ",
"      XXOOOooooooOOOOOOOO...OOOOOOOOOOO...OOOOOOOOOOO+++XX      ",
"      XXOOOooooooOOOOOOOO...OOOOOOOOOOO...OOOOOOOOOOO+++XX      ",
"   XXXOOooooooooooooooOOOOOOOOOOOOOOOOOOOOOOOOOOOOOOO+++OOXXX   ",
"   XXXOOooooooooooooooOOOOOOOOOOOOOOOOOOOOOOOOOOOOOOO+++OOXXX   ",
"   XXXOOooooooooooooooOOOOOOOOOOOOOOOOOOOOOOOOOOOOOOO+++OOXXX   ",
"   XXXOOOOOOOOOOOOOOOOOOOOOOOOOOOOOOOOOOOOOOOOOOOOOOOOOOOOXXX   ",
"   XXXOOOOOOOOOOOOOOOOOOOOOOOOOOOOOOOOOOOOOOOOOOOOOOOOOOOOXXX   ",
"XXXXXXXXXXXXXXXXXXXXXXXXXXXXXXXXXXXXXXXXXXXXXXXXXXXXXXXXXXXXXXXX",
"XXXXXXXXXXXXXXXXXXXXXXXXXXXXXXXXXXXXXXXXXXXXXXXXXXXXXXXXXXXXXXXX",
"XXXXXXXXXXXXXXXXXXXXXXXXXXXXXXXXXXXXXXXXXXXXXXXXXXXXXXXXXXXXXXXX"
};
