/* XPM */
static char *death_2[] = {
/* columns rows colors chars-per-pixel */
"64 64 6 1 ",
"  c None",
". c #3F275E",
"X c #1E5451",
"o c #964581",
"O c #AA62B1",
"+ c #C482D4",
/* pixels */
"                                                                ",
"                                                                ",
"                                                                ",
"                                                                ",
"                                                                ",
"                                                                ",
"                                                                ",
"                                                                ",
"                                                                ",
"                                                                ",
"                                                                ",
"                                                                ",
"                                                                ",
"                                                                ",
"                                                                ",
"                                                                ",
"                                                                ",
"                                                                ",
"                                                                ",
"                                                                ",
"                                                                ",
"                                                                ",
"                                                                ",
"                                                                ",
"                                                                ",
"                                                                ",
"                                                                ",
"                                                                ",
"                                                                ",
"                                                                ",
"                                                                ",
"                                                                ",
"                                                                ",
"                                                                ",
"                         XXXXXXXXXXXXXXXXX                      ",
"                         XXXXXXXXXXXXXXXXX                      ",
"                         XXXXXXXXXXXXXXXXX                      ",
"                   XXXXXXOOOOOO+++++++++++XXXXX                 ",
"                   XXXXXXOOOOOO+++++++++++XXXXX                 ",
"                 XXOOOOOOOOOOOOOOOOOOOOOOO+++++XXX              ",
"                 XXOOOOOOOOOOOOOOOOOOOOOOO+++++XXX              ",
"                 XXOOOOOOOOOOOOOOOOOOOOOOO+++++XXX              ",
"              XXXOOOOOOOOOOOOOOOOOOOOOOOOOOOOOO+++XXX           ",
"              XXXOOOOOOOOOOOOOOOOOOOOOOOOOOOOOO+++XXX           ",
"              XXXOOOOOOOOOOOOOOOOOOOOOOOOOOOOOO+++XXX           ",
"              XXXOOOOOOOOOOO...OOOOOOOOOOO...OO+++XXX           ",
"              XXXOOOOOOOOOOO...OOOOOOOOOOO...OO+++XXX           ",
"              XXXOOOOOOOOOOO...OOOOOOOOOOO...OO+++XXX           ",
"           XXXOOOOOOOOOOOOOO...OOOOOOOOOOO...OOOOO+++XXX        ",
"           XXXOOOOOOOOOOOOOO...OOOOOOOOOOO...OOOOO+++XXX        ",
"           XXXOOOooOOOOOOOOO...OOOOOOOOOOO...OOOOO+++XXX        ",
"           XXXOOOooOOOOOOOOO...OOOOOOOOOOO...OOOOO+++XXX        ",
"           XXXOOOooOOOOOOOOO...OOOOOOOOOOO...OOOOO+++XXX        ",
"        XXXOOOooooooooOOOOOOOOOOOOOOOOOOOOOOOOOOOO+++OOOXX      ",
"        XXXOOOooooooooOOOOOOOOOOOOOOOOOOOOOOOOOOOO+++OOOXX      ",
"        XXXOOOooooooooOOOOOOOOOOOOOOOOOOOOOOOOOOOO+++OOOXX      ",
"        XXXOOOooooooooooooooOOOOOOOOOOOOOOOOOOOOOOOOOOOOXX      ",
"        XXXOOOooooooooooooooOOOOOOOOOOOOOOOOOOOOOOOOOOOOXX      ",
"        XXXOOOooooooooooooooOOOOOOOOOOOOOOOOOOOOOOOOOOOOXX      ",
"        XXXOOOOOOOOOOOOOOOOOOOOOOOOOOOOOOOOOOOOOOOOOOOOOXX      ",
"        XXXOOOOOOOOOOOOOOOOOOOOOOOOOOOOOOOOOOOOOOOOOOOOOXX      ",
"      XXXXXXXXXXXXXXXXXXXXXXXXXXXXXXXXXXXXXXXXXXXXXXXXXXXXXXX   ",
"      XXXXXXXXXXXXXXXXXXXXXXXXXXXXXXXXXXXXXXXXXXXXXXXXXXXXXXX   ",
"      XXXXXXXXXXXXXXXXXXXXXXXXXXXXXXXXXXXXXXXXXXXXXXXXXXXXXXX   "
};
