/* XPM */
static char *death_6[] = {
/* columns rows colors chars-per-pixel */
"64 64 5 1 ",
"  c None",
". c #1E5451",
"X c #964581",
"o c #AA62B1",
"O c #C482D4",
/* pixels */
"                                                                ",
"                                                                ",
"                                                                ",
"                                                                ",
"                                                                ",
"                                                                ",
"                                                                ",
"                                                                ",
"                                                                ",
"                                                                ",
"                                                                ",
"                                                                ",
"                                                                ",
"                                                                ",
"                                                                ",
"                                                                ",
"                                                                ",
"                                                                ",
"                                                                ",
"                                                                ",
"                                                                ",
"                                                                ",
"                                                                ",
"                                                                ",
"                                                                ",
"                                                                ",
"                                                                ",
"                                                                ",
"                                                                ",
"                                                                ",
"                                                                ",
"                                                                ",
"                                                                ",
"                                                                ",
"                                                                ",
"                                                                ",
"                                                                ",
"                                                                ",
"                                                                ",
"                                                                ",
"                                                                ",
"                                                                ",
"                                                                ",
"                                                                ",
"                                                                ",
"                                                                ",
"                                                                ",
"                                                                ",
"                                                                ",
"                                                                ",
"                                                                ",
"                                                                ",
"                                                                ",
"                         ....................                   ",
"                         ....................                   ",
"                         ....................                   ",
"                   ......oooooooooooooooooOOO.....              ",
"                   ......oooooooooooooooooOOO.....              ",
"      .............ooooooOOOOOOooooooooooooooooOOO........      ",
"      .............ooooooOOOOOOooooooooooooooooOOO........      ",
"      .............ooooooOOOOOOooooooooooooooooOOO........      ",
"......oooooooooooXXXXXXXXooooooooooooooooooooooooooooooooo......",
"......oooooooooooXXXXXXXXooooooooooooooooooooooooooooooooo......",
"......oooooooooooXXXXXXXXooooooooooooooooooooooooooooooooo......"
};
