/* XPM */
static char *Tree[] = {
/* columns rows colors chars-per-pixel */
"54 64 12 1 ",
"  c None",
". c #193C3E",
"X c #3E2731",
"o c #4F3E39",
"O c #1F4D37",
"+ c #2E6635",
"@ c #265C42",
"# c #595347",
"$ c #3E8948",
"% c #53A641",
"& c #63C74D",
"* c #9AC77F",
/* pixels */
"                     $$$$$$$$$$$$                     ",
"                     $$$$$$$$$$$$                     ",
"                 $$$$************$$$$                 ",
"                 $$$$************$$$$                 ",
"            $$$$$&&****************&&$$$$$            ",
"            $$$$$&&****************&&$$$$$            ",
"          $$%%%&&&&&&************&&&&&&%%%$$          ",
"          $$%%%&&&&&&************&&&&&&%%%$$          ",
"        @@%%%%%&&&&&&&&&&&&&&&&&&&&&&&&%%%%%@@        ",
"        @@%%%%%&&&&&&&&&&&&&&&&&&&&&&&&%%%%%@@        ",
"      @@$$%%%%%$$&&&&&&&&&&&&&&&&&&&&$$%%%%%$$@@      ",
"      @@$$%%%%%$$&&&&&&&&&&&&&&&&&&&&$$%%%%%$$@@      ",
"      @@$$%%%%%%%$$$$&&&&&&&&&&&&$$$$%%%%%%%$$@@      ",
"      @@$$%%%%%%%$$$$&&&&&&&&&&&&$$$$%%%%%%%$$@@      ",
"    @@$$$$%%%%%%%%%%%%%%%$$$$%%%%%%%%%%%%%%%$$$$      ",
"    @@$$$$%%%%%%%%%%%%%%%$$$$%%%%%%%%%%%%%%%$$$$@@    ",
"    @@$$$$%%%%%%%%%%%%%%%$$$$%%%%%%%%%%%%%%%$$$$@@    ",
"    @@$$$$$$%%%%%%%%%%%%%%%%%%%%%%%%%%%%%%$$$$$$@@    ",
"    @@$$$$$$%%%%%%%%%%%%%%%%%%%%%%%%%%%%%%$$$$$$@@    ",
"  @@$$++$$$$$$$%%%%%%%%%%%%%%%%%%%%%%%%$$$$$$$++$$@@  ",
"  @@$$++$$$$$$$%%%%%%%%%%%%%%%%%%%%%%%%$$$$$$$++$$@@  ",
"  @@$$++++$$$$$$$$$%%%%%%$$$$%%%%%%$$$$$$$$$++++$$@@  ",
"  @@$$++++$$$$$$$$$%%%%%%$$$$%%%%%%$$$$$$$$$++++$$@@  ",
"  @@$$$$$$$$+++$$$$$$$$$$$$$$$$$$$$$$$$+++$$$$$$$$@@  ",
"  @@$$$$$$$$+++$$$$$$$$$$$$$$$$$$$$$$$$+++$$$$$$$$@@  ",
"  ..$$$$$$$$+++++$$$$$$$$$$$$$$$$$$$$+++++$$$$$$$$..  ",
"  ..$$$$$$$$+++++$$$$$$$$$$$$$$$$$$$$+++++$$$$$$$$..  ",
"  ..$$$$$$$$$$$$$$$$$$$++++++++$$$$$$$$$$$$$$$$$$$..  ",
"  ..$$$$$$$$$$$$$$$$$$$++++++++$$$$$$$$$$$$$$$$$$$..  ",
"..@@@@$$$$$$$$$$$$$$$$$$$++++$$$$$$$$$$$$$$$$$$$@@@@..",
"..@@@@$$$$$$$$$$$$$$$$$$$++++$$$$$$$$$$$$$$$$$$$@@@@..",
"..@@@@@@OOOO$$$$$$$$$$$$$$$$$$$$$$$$$$$$$$OOOO@@@@@@..",
"..@@@@@@OOOO$$$$$$$$$$$$$$$$$$$$$$$$$$$$$$OOOO@@@@@@..",
"..@@@@@@OO$$$$$$$$$$$$$$$$$$$$$$$$$$$$$$$$$$OO@@@@@@..",
"..@@@@@@OO$$$$$$$$$$$$$$$$$$$$$$$$$$$$$$$$$$OO@@@@@@..",
"  ..@@@@@@@@$$$$$$$OOOOOO$$$$OOOOOO$$$$$$$@@@@@@@@..  ",
"  ..@@@@@@@@$$$$$$$OOOOOO$$$$OOOOOO$$$$$$$@@@@@@@@..  ",
"    ..@@@@@@@@@@@@@@@OO$$$$$$$$OO@@@@@@@@@@@@@@@..    ",
"    ..@@@@@@@@@@@@@@@OO$$$$$$$$OO@@@@@@@@@@@@@@@..    ",
"      ....@@@@@@@@@@@@@@@$$$$@@@@@@@@@@@@@@@....      ",
"      ....@@@@@@@@@@@@@@@$$$$@@@@@@@@@@@@@@@....      ",
"          ..@@@@@@@@@@@@@@@@@@@@@@@@@@@@@@..          ",
"          ..@@@@@@@@@@@@@@@@@@@@@@@@@@@@@@..          ",
"          .....@@@@@@..@@@@@@@@..@@@@@@.....          ",
"          .....@@@@@@..@@@@@@@@..@@@@@@.....          ",
"        .............oo..@@@@..oo.............        ",
"        .............oo..@@@@..oo.............        ",
"      .........XX##oooooo....oooooo##XX.........      ",
"      .........XX##oooooo....oooooo##XX.........      ",
"      .........XX##oooooo....oooooo##XX.........      ",
"    ........XXX####oooooooooooooooo####XXX........    ",
"    ........XXX####oooooooooooooooo####XXX........    ",
"    ........###ooooooXXooooooooXXoooooo###........    ",
"    ........###ooooooXXooooooooXXoooooo###........    ",
"    ........XXXXXooXXXXoo####ooXXXXooXXXXX........    ",
"    ........XXXXXooXXXXoo####ooXXXXooXXXXX........    ",
"    .............XXXXXXoo####ooXXXXXX.............    ",
"    .............XXXXXXoo####ooXXXXXX.............    ",
"    .................XXooooooooXX.................    ",
"    .................XXooooooooXX.................    ",
"      .................oooooooo.................      ",
"      .................oooooooo.................      ",
"        .................oooo.................        ",
"        .................oooo.................        "
};
