/* XPM */
static char *slime_3[] = {
/* columns rows colors chars-per-pixel */
"64 64 6 1 ",
"  c None",
". c #3F275E",
"X c #1E5451",
"o c #8D4179",
"O c #A65CAD",
"+ c #C17CD2",
/* pixels */
"                                                                ",
"                                                                ",
"                                                                ",
"                                                                ",
"                                                                ",
"                                                                ",
"                                                                ",
"                                                                ",
"                                                                ",
"                                                                ",
"                                                                ",
"                                                                ",
"                                                                ",
"                                                                ",
"                                                                ",
"                                                                ",
"                                                                ",
"                                                                ",
"                                                                ",
"                                                                ",
"                                                                ",
"                                                                ",
"                                                                ",
"                                                                ",
"                                                                ",
"                                                                ",
"                                                                ",
"                                                                ",
"                                                                ",
"                                                                ",
"                                                                ",
"                                                                ",
"                                                                ",
"                                                                ",
"                                                                ",
"                                                                ",
"                                                                ",
"                                                                ",
"                                                                ",
"                                                                ",
"                XXXXXXXXXXXXXXXXXXXXXXXXXXXXXXXX                ",
"                XXXXXXXXXXXXXXXXXXXXXXXXXXXXXXXX                ",
"                XXXXXXXXXXXXXXXXXXXXXXXXXXXXXXXX                ",
"           XXXXXOOOOOOOOOOOOOOOO++++++++++++++++XXXXX           ",
"           XXXXXOOOOOOOOOOOOOOOO++++++++++++++++XXXXX           ",
"        XXXOOOOOOOOOOOOOOOOOOOOOOOOOOOOOOOOOOOOO+++++XXX        ",
"        XXXOOOOOOOOOOOOOOOOOOOOOOOOOOOOOOOOOOOOO+++++XXX        ",
"        XXXOOOOOOOOOOOOOOOOOOOOOOOOOOOOOOOOOOOOO+++++XXX        ",
"     XXXOOOOO+++++++++++OOOOOOOO++++++++OOOOOOOOOOOOO+++XX      ",
"     XXXOOOOO+++++++++++OOOOOOOO++++++++OOOOOOOOOOOOO+++XX      ",
"     XXXOOOOO+++++++++++OOOOOOOO++++++++OOOOOOOOOOOOO+++XX      ",
"     XXXOOOOOOOO+++++OOOOO...OOOOOOOOOOOOO...OOOOOOOO+++XX      ",
"     XXXOOOOOOOO+++++OOOOO...OOOOOOOOOOOOO...OOOOOOOO+++XX      ",
"   XXOOOoooOOOOOOOOOOOOOOO...OOOOOOOOOOOOO...OOOOOOOOOOO++XXX   ",
"   XXOOOoooOOOOOOOOOOOOOOO...OOOOOOOOOOOOO...OOOOOOOOOOO++XXX   ",
"   XXOOOoooOOOOOOOOOOOOOOO...OOOOOOOOOOOOO...OOOOOOOOOOO++XXX   ",
"   XXOOOoooooOOOOOOOOOOOOOOOOOOOOOOOOOOOOOOOOOOOOOOOOOOO++XXX   ",
"   XXOOOoooooOOOOOOOOOOOOOOOOOOOOOOOOOOOOOOOOOOOOOOOOOOO++XXX   ",
"   XXOOOoooooOOOOOOOOOOOOOOOOOOOOOOOOOOOOOOOOOOOOOOOOOOO++XXX   ",
"   XXOOOOOOooooooooooOOOOOOOOOOOOOOOOOOOOOOOOOOOOOOOOOOOOOXXX   ",
"   XXOOOOOOooooooooooOOOOOOOOOOOOOOOOOOOOOOOOOOOOOOOOOOOOOXXX   ",
"     XXXXXXXXXXXXXXXXXXXXXXXXXXXXXXXXXXXXXXXXXXXXXXXXXXXXX      ",
"     XXXXXXXXXXXXXXXXXXXXXXXXXXXXXXXXXXXXXXXXXXXXXXXXXXXXX      ",
"     XXXXXXXXXXXXXXXXXXXXXXXXXXXXXXXXXXXXXXXXXXXXXXXXXXXXX      "
};
