/* XPM */
static char *slime_2[] = {
/* columns rows colors chars-per-pixel */
"64 64 6 1 ",
"  c None",
". c #3F275E",
"X c #1E5451",
"o c #8D4179",
"O c #A65CAD",
"+ c #C17CD2",
/* pixels */
"                                                                ",
"                                                                ",
"                                                                ",
"                                                                ",
"                                                                ",
"                                                                ",
"                                                                ",
"                                                                ",
"                                                                ",
"                                                                ",
"                                                                ",
"                                                                ",
"                                                                ",
"                                                                ",
"                                                                ",
"                                                                ",
"                                                                ",
"                                                                ",
"                                                                ",
"                                                                ",
"                                                                ",
"                                                                ",
"                                                                ",
"                                                                ",
"                                                                ",
"                                                                ",
"                                                                ",
"                                                                ",
"                                                                ",
"                                                                ",
"                                                                ",
"                                                                ",
"                                                                ",
"                                                                ",
"                                                                ",
"                  XXXXXXXXXXXXXXXXXXXXXXXXXXX                   ",
"                  XXXXXXXXXXXXXXXXXXXXXXXXXXX                   ",
"             XXXXXOOOOOOOOOOO++++++++++++++++XXXXX              ",
"             XXXXXOOOOOOOOOOO++++++++++++++++XXXXX              ",
"             XXXXXOOOOOOOOOOO++++++++++++++++XXXXX              ",
"          XXXOOOOOOOOOOOOOOOOOOOOOOOOOOOOOOOO+++++XXX           ",
"          XXXOOOOOOOOOOOOOOOOOOOOOOOOOOOOOOOO+++++XXX           ",
"          XXXOOOOOOOOOOOOOOOOOOOOOOOOOOOOOOOO+++++XXX           ",
"       X  XXXOOOOO++++++++OOOOOOOOOOO+++++OOOOOO++XXX           ",
"       X  XXXOOOOO++++++++OOOOOOOOOOO+++++OOOOOO++XXX           ",
"       XXXOOOOOOOO++++++OOOOOOOOOOOOOOOOOOOOOOOOOO+++XXX        ",
"       XXXOOOOOOOO++++++OOOOOOOOOOOOOOOOOOOOOOOOOO+++XXX        ",
"       XXXOOOOOOOO++++++OOOOOOOOOOOOOOOOOOOOOOOOOO+++XXX        ",
"       XXXOOOoooOOOOOOOOOO...OOOOOOOOOOOOO...OOOOO+++XXX        ",
"       XXXOOOoooOOOOOOOOOO...OOOOOOOOOOOOO...OOOOO+++XXX        ",
"       XXXOOOoooOOOOOOOOOO...OOOOOOOOOOOOO...OOOOO+++XXX        ",
"       XXXOOOoooOOOOOOOOOO...OOOOOOOOOOOOO...OOOOO+++XXX        ",
"       XXXOOOoooOOOOOOOOOO...OOOOOOOOOOOOO...OOOOO+++XXX        ",
"       XXXOOOoooooOOOOOOOO...OOOOOOOOOOOOO...OOOOO+++XXX        ",
"       XXXOOOoooooOOOOOOOO...OOOOOOOOOOOOO...OOOOO+++XXX        ",
"       XXXOOOoooooOOOOOOOO...OOOOOOOOOOOOO...OOOOO+++XXX        ",
"       XXXOOOOOOooooooooOOOOOOOOOOOOOOOOOOOOOOOOOO+++XXX        ",
"       XXXOOOOOOooooooooOOOOOOOOOOOOOOOOOOOOOOOOOO+++XXX        ",
"       XXXOOOOOOooooooooOOOOOOOOOOOOOOOOOOOOOOOOOO+++XXX        ",
"        XXOOOOOOOOOOOOOOOOOOOOOOOOOOOOOOOOOOOOOOOOOOOXXX        ",
"        XXOOOOOOOOOOOOOOOOOOOOOOOOOOOOOOOOOOOOOOOOOOOXXX        ",
"          XXXXXXXXXXXXXXXXXXXXXXXXXXXXXXXXXXXXXXXXXXX           ",
"          XXXXXXXXXXXXXXXXXXXXXXXXXXXXXXXXXXXXXXXXXXX           ",
"          XXXXXXXXXXXXXXXXXXXXXXXXXXXXXXXXXXXXXXXXXXX           "
};
