/* XPM */
static char *death_1[] = {
/* columns rows colors chars-per-pixel */
"64 64 6 1 ",
"  c None",
". c #3F275E",
"X c #1E5451",
"o c #974682",
"O c #AB63B1",
"+ c #C483D4",
/* pixels */
"                                                                ",
"                                                                ",
"                                                                ",
"                                                                ",
"                                                                ",
"                                                                ",
"                                                                ",
"                                                                ",
"                                                                ",
"                                                                ",
"                                                                ",
"                                                                ",
"                                                                ",
"                                                                ",
"                                                                ",
"                                                                ",
"                                                                ",
"                                                                ",
"                                                                ",
"                                                                ",
"                                                                ",
"                                                                ",
"                                                                ",
"                                                                ",
"                                                                ",
"                                                                ",
"                                                                ",
"                                                                ",
"                                                                ",
"                                                                ",
"                                                                ",
"                         XXXXXXXXXXXXXXXXX                      ",
"                         XXXXXXXXXXXXXXXXX                      ",
"                         XXXXXXXXXXXXXXXXX                      ",
"                   XXXXXX+++++++++++++++++XXXXX                 ",
"                   XXXXXX+++++++++++++++++XXXXX                 ",
"                 XXOOOOOOOOOOOOOOOOOOOOOOO+++++XXX              ",
"                 XXOOOOOOOOOOOOOOOOOOOOOOO+++++XXX              ",
"                 XXOOOOOOOOOOOOOOOOOOOOOOO+++++XXX              ",
"              XXXOOOOOOOO++++++OOOOOOOOOOOOOOOO+++XXX           ",
"              XXXOOOOOOOO++++++OOOOOOOOOOOOOOOO+++XXX           ",
"              XXXOOOOOOOO++++++OOOOOOOOOOOOOOOO+++XXX           ",
"              XXXOOOOOOOOOOOOOOOOOOOOOOOOOOOOOOOOOXXX           ",
"              XXXOOOOOOOOOOOOOOOOOOOOOOOOOOOOOOOOOXXX           ",
"              XXXOOOOOOOOOOOOOOOOOOOOOOOOOOOOOOOOOXXX           ",
"           XXXOOOooOOOOOOOOO...OOOOOOOOOOO...OOOOO+++XXX        ",
"           XXXOOOooOOOOOOOOO...OOOOOOOOOOO...OOOOO+++XXX        ",
"           XXXOOOooOOOOOOOOO...OOOOOOOOOOO...OOOOO+++XXX        ",
"           XXXOOOooOOOOOOOOO...OOOOOOOOOOO...OOOOO+++XXX        ",
"           XXXOOOooOOOOOOOOO...OOOOOOOOOOO...OOOOO+++XXX        ",
"           XXXOOOooOOOOOOOOO...OOOOOOOOOOO...OOOOO+++XXX        ",
"           XXXOOOooOOOOOOOOO...OOOOOOOOOOO...OOOOO+++XXX        ",
"           XXXOOOooOOOOOOOOO...OOOOOOOOOOO...OOOOO+++XXX        ",
"           XXXOOOoooooOOOOOOOOOOOOOOOOOOOOOOOOOOOO+++XXX        ",
"           XXXOOOoooooOOOOOOOOOOOOOOOOOOOOOOOOOOOO+++XXX        ",
"           XXXOOOoooooOOOOOOOOOOOOOOOOOOOOOOOOOOOO+++XXX        ",
"           XXXOOOOOoooooooooOOOOOOOOOOOOOOOOOOOOOOOOOXXX        ",
"           XXXOOOOOoooooooooOOOOOOOOOOOOOOOOOOOOOOOOOXXX        ",
"           XXXOOOOOOOOOOOOOOOOOOOOOOOOOOOOOOOOOOOOOOOXXX        ",
"           XXXOOOOOOOOOOOOOOOOOOOOOOOOOOOOOOOOOOOOOOOXXX        ",
"           XXXOOOOOOOOOOOOOOOOOOOOOOOOOOOOOOOOOOOOOOOXXX        ",
"        XXXXXXXXXXXXXXXXXXXXXXXXXXXXXXXXXXXXXXXXXXXXXXXXXX      ",
"        XXXXXXXXXXXXXXXXXXXXXXXXXXXXXXXXXXXXXXXXXXXXXXXXXX      ",
"        XXXXXXXXXXXXXXXXXXXXXXXXXXXXXXXXXXXXXXXXXXXXXXXXXX      "
};
