/* XPM */
static char *death_4[] = {
/* columns rows colors chars-per-pixel */
"64 64 6 1 ",
"  c None",
". c #3F275E",
"X c #1E5451",
"o c #964581",
"O c #AA62B1",
"+ c #C482D4",
/* pixels */
"                                                                ",
"                                                                ",
"                                                                ",
"                                                                ",
"                                                                ",
"                                                                ",
"                                                                ",
"                                                                ",
"                                                                ",
"                                                                ",
"                                                                ",
"                                                                ",
"                                                                ",
"                                                                ",
"                                                                ",
"                                                                ",
"                                                                ",
"                                                                ",
"                                                                ",
"                                                                ",
"                                                                ",
"                                                                ",
"                                                                ",
"                                                                ",
"                                                                ",
"                                                                ",
"                                                                ",
"                                                                ",
"                                                                ",
"                                                                ",
"                                                                ",
"                                                                ",
"                                                                ",
"                                                                ",
"                                                                ",
"                                                                ",
"                                                                ",
"                                                                ",
"                                                                ",
"                                                                ",
"                                                                ",
"                                                                ",
"                                                                ",
"                                                                ",
"                                                                ",
"                      XXXXXXXXXXXXXXXXXXXX                      ",
"                      XXXXXXXXXXXXXXXXXXXX                      ",
"                      XXXXXXXXXXXXXXXXXXXX                      ",
"                 XXXXXOOOOOOOOOOO+++++++++XXXXX                 ",
"                 XXXXXOOOOOOOOOOO+++++++++XXXXX                 ",
"              XXXOOOOO++++++OOOOOOOOOOOOOO+++++XXX              ",
"              XXXOOOOO++++++OOOOOOOOOOOOOO+++++XXX              ",
"              XXXOOOOO++++++OOOOOOOOOOOOOO+++++XXX              ",
"        XXXXXXOOOOOOOOOOOOOOOOOOOOOOOOOOOOOOOOO+++XXXXXX        ",
"        XXXXXXOOOOOOOOOOOOOOOOOOOOOOOOOOOOOOOOO+++XXXXXX        ",
"        XXXXXXOOOOOOOOOOOOOOOOOOOOOOOOOOOOOOOOO+++XXXXXX        ",
"      XXOOOOOOoooOOOOOOOO...OOOOOOOOOOO...OOOOO+++XXX+++XX      ",
"      XXOOOOOOoooOOOOOOOO...OOOOOOOOOOO...OOOOO+++XXX+++XX      ",
"      XXOOOOOOoooOOOOOOOO...OOOOOOOOOOO...OOOOO+++XXX+++XX      ",
"   XXXOOOOOOOOOOOooooooooOOOOOOOOOOOOOOOOOOOOOOOOOOOOOOOOOXXX   ",
"   XXXOOOOOOOOOOOooooooooOOOOOOOOOOOOOOOOOOOOOOOOOOOOOOOOOXXX   ",
"XXXXXXXXooooooooooooooooooooooooooooooooooooooooooooooooXXXXXXXX",
"XXXXXXXXooooooooooooooooooooooooooooooooooooooooooooooooXXXXXXXX",
"XXXXXXXXooooooooooooooooooooooooooooooooooooooooooooooooXXXXXXXX"
};
