/* XPM */
static char *death_5[] = {
/* columns rows colors chars-per-pixel */
"64 64 5 1 ",
"  c None",
". c #1E5452",
"X c #964580",
"o c #AB62B1",
"O c #C582D4",
/* pixels */
"                                                                ",
"                                                                ",
"                                                                ",
"                                                                ",
"                                                                ",
"                                                                ",
"                                                                ",
"                                                                ",
"                                                                ",
"                                                                ",
"                                                                ",
"                                                                ",
"                                                                ",
"                                                                ",
"                                                                ",
"                                                                ",
"                                                                ",
"                                                                ",
"                                                                ",
"                                                                ",
"                                                                ",
"                                                                ",
"                                                                ",
"                                                                ",
"                                                                ",
"                                                                ",
"                                                                ",
"                                                                ",
"                                                                ",
"                                                                ",
"                                                                ",
"                                                                ",
"                                                                ",
"                                                                ",
"                                                                ",
"                                                                ",
"                                                                ",
"                                                                ",
"                                                                ",
"                                                                ",
"                                                                ",
"                                                                ",
"                                                                ",
"                                                                ",
"                                                                ",
"                                                                ",
"                                                                ",
"                                                                ",
"                                                                ",
"                                                                ",
"                         ....................                   ",
"                         ....................                   ",
"                         ....................                   ",
"                   ......oooooooooooOOOOOOOOO.....              ",
"                   ......oooooooooooOOOOOOOOO.....              ",
"                   ......oooooooooooOOOOOOOOO.....              ",
"        ...      ..ooooooOOOOOOooooooooooooooOOOOO...           ",
"        ...      ..ooooooOOOOOOooooooooooooooOOOOO...           ",
"      ..ooo......oooooooooooooooooooOOOOOOoooooOOOOOO.....      ",
"      ..ooo......oooooooooooooooooooOOOOOOoooooOOOOOO.....      ",
"      ..ooo......oooooooooooooooooooOOOOOOoooooOOOOOO.....      ",
"......oooooooooooXXXXXXXXoooooooooooooooooOOOooooooooooooo......",
"......oooooooooooXXXXXXXXoooooooooooooooooOOOooooooooooooo......",
"......oooooooooooXXXXXXXXoooooooooooooooooOOOooooooooooooo......"
};
