/* XPM */
static char *Dash_6[] = {
/* columns rows colors chars-per-pixel */
"47 64 24 1 ",
"  c None",
". c black",
"X c #121115",
"o c #230726",
"O c #310D35",
"+ c #222028",
"@ c #343336",
"# c #511C3A",
"$ c #1C1859",
"% c #571748",
"& c #6E2749",
"* c #2A6957",
"= c gray35",
"- c gray45",
"; c #913C51",
": c #8C4B63",
"> c #C16A7D",
", c #3B804D",
"< c #5078A1",
"1 c gray56",
"2 c #9C8C9C",
"3 c #AEAEAE",
"4 c #E5959F",
"5 c #F2E9F2",
/* pixels */
"                                               ",
"                                               ",
"                                               ",
"                                               ",
"                                               ",
"                                               ",
"                                               ",
"                                               ",
"                                               ",
"                                               ",
"               ............                    ",
"               ............                    ",
"          .....&&%%%;;;;;&&...                 ",
"          .....&&%%%;;;;;&&...                 ",
"          .....&&%%%;;;;;&&...                 ",
"          ..;;;%%&&&%%%%%..............        ",
"          ..;;;%%&&&%%%%%..............        ",
"        .......&&%%%,,...OO%%%%%%%%%%%%...     ",
"        .......&&%%%,,...OO%%%%%%%%%%%%...     ",
"        .......&&%%%,,...OO%%%%%%%%%%%%...     ",
"     .....;;;;;OO***..OOO%%&&&%%%%%&&%%%%%..   ",
"     .....;;;;;OO***..OOO%%&&&%%%%%&&%%%%%..   ",
"     ...%%OO%%%OO***..%%%&&&&&OOOOO%%&&OOO..   ",
"     ...%%OO%%%OO***..%%%&&&&&OOOOO%%&&OOO..   ",
"     ...%%OO%%%OO***..%%%&&&&&OOOOO%%&&OOO..   ",
"        ..OOOOOOO...%%%%%&&OOO%%&&&&&;;;;;%%...",
"        ..OOOOOOO...%%%%%&&OOO%%&&&&&;;;;;%%...",
"     ...4444........%%&&&%%%%%%%;;;&&%%&&&&&...",
"     ...4444........%%&&&%%%%%%%;;;&&%%&&&&&...",
"     ...4444........%%&&&%%%%%%%;;;&&%%&&&&&...",
"     ...>>>>333.....%%OOOOO&&&%%&&&::%%OOO%%...",
"     ...>>>>333.....%%OOOOO&&&%%&&&::%%OOO%%...",
"     .....1111133...OOOOOOO;;;OO%%%>>>>$$$..   ",
"     .....1111133...OOOOOOO;;;OO%%%>>>>$$$..   ",
"     ...&&..11111111OO444;;OOO22$$$>>44<<<..   ",
"     ...&&..11111111OO444;;OOO22$$$>>44<<<..   ",
"     ...&&..11111111OO444;;OOO22$$$>>44<<<..   ",
"     ...&&##...11111..>>>>>%%%55<<<4444>>>..   ",
"     ...&&##...11111..>>>>>%%%55<<<4444>>>..   ",
"        ..##oooooooo**.....&&&4444444>>...     ",
"        ..##oooooooo**.....&&&4444444>>...     ",
"        ..##oooooooo**.....&&&4444444>>...     ",
"        ..&&...*****,,,,,..............        ",
"        ..&&...*****,,,,,..............        ",
"............++++++++@@XXX..                    ",
"............++++++++@@XXX..                    ",
"............++++++++@@XXX..                    ",
"...33333++>>+++@@@@@XX+++..                    ",
"...33333++>>+++@@@@@XX+++..                    ",
"   ..---@@44........+++++44........            ",
"   ..---@@44........+++++44........            ",
"   ..---@@44........+++++44........            ",
"     .......        ..+++@@---33...            ",
"     .......        ..+++@@---33...            ",
"                      ...==333..               ",
"                      ...==333..               ",
"                      ...==333..               ",
"                         .....                 ",
"                         .....                 ",
"                                               ",
"                                               ",
"                                               ",
"                                               ",
"                                               "
};
