/* XPM */
static char *Dash_1[] = {
/* columns rows colors chars-per-pixel */
"36 64 26 1 ",
"  c None",
". c black",
"X c #230726",
"o c #3B122F",
"O c #310D35",
"+ c #222028",
"@ c #343336",
"# c #511C3A",
"$ c #1C1859",
"% c #571748",
"& c #6E2749",
"* c #2A6957",
"= c gray35",
"- c #676767",
"; c gray45",
": c #913C51",
"> c #8C4B63",
", c #95426A",
"< c #C16A7D",
"1 c #3B804D",
"2 c #5078A1",
"3 c gray56",
"4 c #9C8C9C",
"5 c #AEAEAE",
"6 c #E5959F",
"7 c #F2E9F2",
/* pixels */
"       ..........                   ",
"       ..........                   ",
"     ..&&&:::::&&...                ",
"     ..&&&:::::&&...                ",
"     ..&&&:::::&&...                ",
"  ...&&&&&&&&&&..............       ",
"  ...&&&&&&&&&&..............       ",
".....::&&&11...OO%%%%%%%%%%%%...    ",
".....::&&&11...OO%%%%%%%%%%%%...    ",
".....::&&&11...OO%%%%%%%%%%%%...    ",
"..&&&&&***..OOO%%&&&%%%%%&&%%%%%..  ",
"..&&&&&***..OOO%%&&&%%%%%&&%%%%%..  ",
"  ...OO***..%%%&&&&&OOOOO%%&&OOO..  ",
"  ...OO***..%%%&&&&&OOOOO%%&&OOO..  ",
"  ...OO***..%%%&&&&&OOOOO%%&&OOO..  ",
"  ...%%...%%%%%&&OOO%%&&&&&:::::%%..",
"  ...%%...%%%%%&&OOO%%&&&&&:::::%%..",
"  ...OO...%%&&&%%%%%%%:::&&%%&&&&&..",
"  ...OO...%%&&&%%%%%%%:::&&%%&&&&&..",
"  ...OO...%%&&&%%%%%%%:::&&%%&&&&&..",
"  ........%%OOOOO&&&%%&&&>>%%OOO%%..",
"  ........%%OOOOO&&&%%&&&>>%%OOO%%..",
"       ...OOOOOOO:::OO%%%<<<<$$$..  ",
"       ...OOOOOOO:::OO%%%<<<<$$$..  ",
"       ...OOOOOOO:::OO%%%<<<<$$$..  ",
"       ...OO666::OOO44$$$<<66222..  ",
"       ...OO666::OOO44$$$<<66222..  ",
"          ..<<<<<%%%772226666<<<..  ",
"          ..<<<<<%%%772226666<<<..  ",
"          ..<<<<<%%%772226666<<<..  ",
"       ...,,.....&&&6666666<<...    ",
"       ...,,.....&&&6666666<<...    ",
"     ..&&&,,,,,.....*******oo---..  ",
"     ..&&&,,,,,.....*******oo---..  ",
"     ..&&&##...33XXXoo1111166666--..",
"     ..&&&##...33XXXoo1111166666--..",
"     ..&&&##...33XXXoo1111166666--..",
"     ..&&&..333336666611111<<<<<33..",
"     ..&&&..333336666611111<<<<<33..",
"     ..&&&..333--<<<<<11111oo.....  ",
"     ..&&&..333--<<<<<11111oo.....  ",
"     ..&&&..333--<<<<<11111oo.....  ",
"       .....55555***XX11111**...    ",
"       .....55555***XX11111**...    ",
"       ...&&...XXXXX11111**++...    ",
"       ...&&...XXXXX11111**++...    ",
"       ...&&...XXXXX11111**++...    ",
"          .....*****11@@@++++...    ",
"          .....*****11@@@++++...    ",
"            ...++@@@@@...++66...    ",
"            ...++@@@@@...++66...    ",
"            ...++@@@@@...++66...    ",
"            ...++@@@..+++@@..       ",
"            ...++@@@..+++@@..       ",
"            ...<<666..+++@@..       ",
"            ...<<666..+++@@..       ",
"            ...<<666..+++@@..       ",
"          ..+++@@.....;;;5555...    ",
"          ..+++@@.....;;;5555...    ",
"          ..===;;...                ",
"          ..===;;...                ",
"          ..===;;...                ",
"          ..55555...                ",
"          ..55555...                "
};
