/* XPM */
static char *Dash_7[] = {
/* columns rows colors chars-per-pixel */
"42 64 25 1 ",
"  c None",
". c black",
"X c #121115",
"o c #230726",
"O c #310D35",
"+ c #222028",
"@ c #343336",
"# c #511C3A",
"$ c #1C1859",
"% c #571748",
"& c #6E2749",
"* c #2A6957",
"= c gray35",
"- c gray45",
"; c #913C51",
": c #8C4B63",
"> c #95426A",
", c #C16A7D",
"< c #3B804D",
"1 c #5078A1",
"2 c gray56",
"3 c #9C8C9C",
"4 c #AEAEAE",
"5 c #E5959F",
"6 c #F2E9F2",
/* pixels */
"                                          ",
"                                          ",
"                                          ",
"                                          ",
"                                          ",
"                                          ",
"                                          ",
"                                          ",
"                                          ",
"                                          ",
"                                          ",
"                                          ",
"                                          ",
"                                          ",
"                                          ",
"            ..........                    ",
"            ..........                    ",
"          ..&&&;;;;;..............        ",
"          ..&&&;;;;;..............        ",
"          ..&&&;;;;;..............        ",
"       ...&&&&&<<...OO%%%%%%%%%%%%...     ",
"       ...&&&&&<<...OO%%%%%%%%%%%%...     ",
"       ...;;***..OOO%%&&%%%%%&&&%%%%%..   ",
"       ...;;***..OOO%%&&%%%%%&&&%%%%%..   ",
"       ...;;***..OOO%%&&%%%%%&&&%%%%%..   ",
"       ...&&***..%%%&&&&OOOOO%%%&&OOO..   ",
"       ...&&***..%%%&&&&OOOOO%%%&&OOO..   ",
"     ..&&&OO...%%%%%&&OO%%%&&&&&;;;;;%%...",
"     ..&&&OO...%%%%%&&OO%%%&&&&&;;;;;%%...",
"     ..&&&OO...%%%%%&&OO%%%&&&&&;;;;;%%...",
"     .....%%...%%&&&%%%%%%%;;&&&%%&&&&&...",
"     .....%%...%%&&&%%%%%%%;;&&&%%&&&&&...",
"  ...>>........%%OOOOO&&%%%&&:::%%OOO..   ",
"  ...>>........%%OOOOO&&%%%&&:::%%OOO..   ",
"..........>>...OOOOOOO;;OOO%%,,,,,$$$..   ",
"..........>>...OOOOOOO;;OOO%%,,,,,$$$..   ",
"..........>>...OOOOOOO;;OOO%%,,,,,$$$..   ",
"..55555444.....OO555;;OO333$$,,,55111..   ",
"..55555444.....OO555;;OO333$$,,,55111..   ",
"..,,,,,44444222..,,,,,%%6661155555,,,..   ",
"..,,,,,44444222..,,,,,%%6661155555,,,..   ",
"..,,,,,44444222..,,,,,%%6661155555,,,..   ",
".......22222222oo.....&&55555555,,...     ",
".......22222222oo.....&&55555555,,...     ",
"  ...##.....ooo**<<<..............        ",
"  ...##.....ooo**<<<..............        ",
"  ...##.....ooo**<<<..............        ",
"  ........*****<<XXX..                    ",
"  ........*****<<XXX..                    ",
"..---++,,,@@@@@XX@@@..                    ",
"..---++,,,@@@@@XX@@@..                    ",
"..---++,,,@@@@@XX@@@..                    ",
"..444@@555@@...++555..                    ",
"..444@@555@@...++555..                    ",
"..444..........++@@@..                    ",
"..444..........++@@@..                    ",
"..444..........++@@@..                    ",
".....       ...==44444..                  ",
".....       ...==44444..                  ",
"                                          ",
"                                          ",
"                                          ",
"                                          ",
"                                          "
};
