/* XPM */
static char *Portal_Open_3[] = {
/* columns rows colors chars-per-pixel */
"64 64 4 1 ",
"  c None",
". c #3012B4",
"X c #580AFF",
"o c #9A2FFF",
/* pixels */
"                                                                ",
"                                                                ",
"                                                                ",
"                                                                ",
"                                                                ",
"                                                                ",
"                                                                ",
"                                                                ",
"                                                                ",
"                                                                ",
"                                                                ",
"                                                                ",
"                                                                ",
"                                X                               ",
"                                                 o              ",
"               XX                               X               ",
"               Xo                                               ",
"                                      X       X                 ",
"                  X                                             ",
"                   X                        X                   ",
"                    X     X...X..XX..X                          ",
"                          ...X.XX.XX..                          ",
"                          .X..X..XXXXX                          ",
"                        XX....  .. X.XXX                        ",
"                       .X....    ..  X.XX                       ",
"                       XX. .       ..XXX.                       ",
"                    XX . .Xoo       ..o.. X                     ",
"                     XX ..oXXo        XX.XXX                    ",
"                       ..XX .Xo       oXX                       ",
"                      XXo.            oX X                      ",
"                      .o..            XXXX                      ",
"                      X ..            Xo .                      ",
"                      ...             X  .        o             ",
"                      X...            X  .                      ",
"                      X..                .                      ",
"                      .X..               X                      ",
"                    XXX.X.               XXX                    ",
"                    XX X..                XX                    ",
"                       X...  Xoo      ...                       ",
"                       XXX.   XX      ..X                       ",
"                       .....  X..     X.X                       ",
"                          ..X.. Xoo.XX                          ",
"                          X.X.. XXXX.o                          ",
"                          XXX.X.....XX                          ",
"                                            X                   ",
"                                                                ",
"                                              X                 ",
"                               X                                ",
"               X                                                ",
"              X                                                 ",
"             X                                                  ",
"                                                                ",
"                                                                ",
"                                                                ",
"                                                                ",
"                                                                ",
"                                                                ",
"                                                                ",
"                                                                ",
"                                                                ",
"                                                                ",
"                                                                ",
"                                                                ",
"                                                                "
};
