/* XPM */
static char *Portal_Open_4[] = {
/* columns rows colors chars-per-pixel */
"64 64 14 1 ",
"  c None",
". c #3012B4",
"X c #3F0FD1",
"o c #450EDC",
"O c #581DD1",
"+ c #6821DC",
"@ c #490DE2",
"# c #4F0CEE",
"$ c #580AFF",
"% c #7118FF",
"& c #7224E2",
"* c #8329EE",
"= c #8121FF",
"- c #9A2FFF",
/* pixels */
"                                                                ",
"                                                                ",
"                                                                ",
"                                                                ",
"                                                                ",
"                                                                ",
"      $                                                 $       ",
"       $$                                $            $$        ",
"       $$                                $            $$        ",
"                                         $                      ",
"          $          $                              $           ",
"                      $                                         ",
"                      $                                         ",
"                      $                                         ",
"                       $$             $$                        ",
"                           XXXX..XXX                            ",
"                           XXXX..XXX                            ",
"                       ..X$....@@@@@.X..                        ",
"                      X..$...# ...###@$$X                       ",
"                      X$$............@$$$                       ",
"                      X$$............@$$$                       ",
"                     X.XX+oXXoX  .......=$                      ",
"             $     XX%.OO@@         . ...%$$     $              ",
"             $$    XX%.@@&#***        ...%$$    $$              ",
"             $$    XX%.@@&#***        ...%$$    $$              ",
"                  .XX$&..$ .. $      .  @=@@$                   ",
"                  O$$@.        --       .O..$                   ",
"                  X$$..        --       .X@@X                   ",
"                  X$$..        --       .X@@X                   ",
"                  @@@.         --        $$$X                   ",
"      $  $        $....                 +&..@                   ",
"                  $@@.                  +#@@X           $       ",
"                  $@@.                  +#@@X           $       ",
"                  $...                  .#@@.                   ",
"                  X@@.     --           . ooX                   ",
"                  X@@.     --           . ooX                   ",
"                  @...              -   * oo$                   ",
"                 $...#                  . .. $                  ",
"             $$   X....  .#               XX    $$              ",
"             $$   X....  .#               XX    $$              ",
"             $     ..@#++               . XX     $              ",
"                   XX@#... $$$        oo....                    ",
"                     ..##X.##*.      oXX.X                      ",
"                     ..##X.##*.      oXX.X                      ",
"                      $..XO..@@.....oXXX$                       ",
"                       ..#%...&@@.XX.X@@                        ",
"                       $$$$$$#X%%&===$                          ",
"                       $$$$$$#X%%&===$                          ",
"                                                $               ",
"                                                                ",
"                              $                   $$            ",
"                              $                   $$            ",
"                                                    $           ",
"                              $                      $          ",
"                              $                       $$        ",
"                              $                       $$        ",
"      $                       $                                 ",
"                                                                ",
"                                                                ",
"                                                                ",
"                                                                ",
"                                                                ",
"                                                                ",
"                                                                "
};
