/* XPM */
static char *Portal_Open_2[] = {
/* columns rows colors chars-per-pixel */
"64 64 4 1 ",
"  c None",
". c #3012B4",
"X c #580AFF",
"o c #9A2FFF",
/* pixels */
"                                                                ",
"                                                                ",
"                                                                ",
"                                                                ",
"                                                                ",
"                                                                ",
"                                                                ",
"                                                                ",
"                                                                ",
"                                                                ",
"                                                                ",
"                                                                ",
"                                                                ",
"                                                                ",
"                                                                ",
"                                                                ",
"                                                                ",
"                                                                ",
"                                                                ",
"                                                                ",
"                                X                               ",
"                                         X                      ",
"                                         X                      ",
"                       X           X    X                       ",
"                        X    X.XXX.X   X                        ",
"                         X  X.....oX                            ",
"                           X.......o.                           ",
"                          X...  ...oX.                          ",
"                         ....    .....                          ",
"                         ...o      ...                          ",
"                         XX.       . .X                         ",
"                    X    Xo.         ..                         ",
"                         X..         ..    X                    ",
"                         X..        ...                         ",
"                         X..        ..X                         ",
"                         XX..      ...                          ",
"                          XX.. Xo....o                          ",
"                          XXX.. .o..oX                          ",
"                            ........                            ",
"                            .X.XXX.X   X                        ",
"                       X      X.X.      X                       ",
"                      X                                         ",
"                     X                                          ",
"                    X                                           ",
"                   X                                            ",
"                                                                ",
"                                                                ",
"                                                                ",
"                                                                ",
"                                                                ",
"                                                                ",
"                                                                ",
"                                                                ",
"                                                                ",
"                                                                ",
"                                                                ",
"                                                                ",
"                                                                ",
"                                                                ",
"                                                                ",
"                                                                ",
"                                                                ",
"                                                                ",
"                                                                "
};
